<?xml version="1.0" encoding="utf-8"?>
<svg viewBox="0.146 0.132 530.544 143.967" width="530.544" height="143.967" xmlns="http://www.w3.org/2000/svg">
  <path d="M 0.6058997344970702 23.466899948120115 Q -1.7341002655029296 23.466899948120115 -3.7441002655029294 22.641899948120116 Q -5.75410026550293 21.816899948120117 -7.26910026550293 20.346899948120118 Q -8.78410026550293 18.87689994812012 -9.62410026550293 16.896899948120115 Q -10.46410026550293 14.916899948120118 -10.46410026550293 12.636899948120117 Q -10.46410026550293 10.326899948120118 -9.62410026550293 8.361899948120119 Q -8.78410026550293 6.396899948120119 -7.26910026550293 4.926899948120116 Q -5.75410026550293 3.4568999481201175 -3.7441002655029294 2.631899948120118 Q -1.7341002655029296 1.806899948120119 0.6058997344970702 1.806899948120119 Q 2.28589973449707 1.806899948120119 3.8908997344970704 2.3018999481201163 Q 5.495899734497069 2.7968999481201173 6.860899734497071 3.7118999481201165 Q 8.22589973449707 4.626899948120119 9.125899734497068 5.886899948120117 L 5.645899734497071 9.186899948120118 Q 4.625899734497068 7.776899948120118 3.36589973449707 7.0868999481201165 Q 2.1058997344970702 6.396899948120119 0.6058997344970702 6.396899948120119 Q -0.6241002655029302 6.396899948120119 -1.6591002655029303 6.861899948120119 Q -2.6941002655029305 7.3268999481201185 -3.47410026550293 8.181899948120117 Q -4.25410026550293 9.036899948120118 -4.68910026550293 10.161899948120118 Q -5.12410026550293 11.286899948120118 -5.12410026550293 12.636899948120117 Q -5.12410026550293 13.986899948120117 -4.68910026550293 15.111899948120117 Q -4.25410026550293 16.23689994812012 -3.47410026550293 17.091899948120115 Q -2.6941002655029305 17.94689994812012 -1.6591002655029303 18.411899948120116 Q -0.6241002655029302 18.87689994812012 0.6058997344970702 18.87689994812012 Q 2.1058997344970702 18.87689994812012 3.36589973449707 18.171899948120117 Q 4.625899734497068 17.466899948120115 5.645899734497071 16.086899948120116 L 9.125899734497068 19.386899948120117 Q 8.22589973449707 20.616899948120118 6.860899734497071 21.546899948120117 Q 5.495899734497069 22.476899948120117 3.8908997344970704 22.971899948120118 Q 2.28589973449707 23.466899948120115 0.6058997344970702 23.466899948120115 Z M 39.829207000732424 23.136899948120117 L 48.01920700073242 2.136899948120117 L 53.89920700073242 2.136899948120117 L 61.969207000732425 23.136899948120117 L 56.389207000732426 23.136899948120117 L 54.64920700073242 18.12689994812012 L 46.969207000732425 18.12689994812012 L 45.19920700073242 23.136899948120117 Z M 48.37920700073242 14.136899948120117 L 53.26920700073242 14.136899948120117 L 50.83920700073242 7.176899948120118 Z M 94.36201080322266 23.136899948120117 L 94.36201080322266 2.136899948120117 L 99.52201080322266 2.136899948120117 L 99.52201080322266 18.726899948120117 L 109.93201080322265 18.726899948120117 L 109.93201080322265 23.136899948120117 Z M 143.80929931640625 23.136899948120117 L 143.80929931640625 2.136899948120117 L 148.96929931640625 2.136899948120117 L 148.96929931640625 18.726899948120117 L 159.37929931640625 18.726899948120117 L 159.37929931640625 23.136899948120117 Z M 191.5379803466797 16.566899948120117 L 191.5379803466797 12.516899948120118 L 202.57798034667968 12.516899948120118 L 202.57798034667968 16.566899948120117 Z M 246.82214538574217 23.466899948120115 Q 244.4821453857422 23.466899948120115 242.47214538574218 22.641899948120116 Q 240.4621453857422 21.816899948120117 238.94714538574217 20.346899948120118 Q 237.4321453857422 18.87689994812012 236.59214538574219 16.896899948120115 Q 235.75214538574218 14.916899948120118 235.75214538574218 12.636899948120117 Q 235.75214538574218 10.326899948120118 236.59214538574219 8.361899948120119 Q 237.4321453857422 6.396899948120119 238.94714538574217 4.926899948120116 Q 240.4621453857422 3.4568999481201175 242.47214538574218 2.631899948120118 Q 244.4821453857422 1.806899948120119 246.82214538574217 1.806899948120119 Q 248.50214538574218 1.806899948120119 250.1071453857422 2.3018999481201163 Q 251.7121453857422 2.7968999481201173 253.0771453857422 3.7118999481201165 Q 254.44214538574218 4.626899948120119 255.34214538574219 5.886899948120117 L 251.8621453857422 9.186899948120118 Q 250.84214538574219 7.776899948120118 249.5821453857422 7.0868999481201165 Q 248.32214538574217 6.396899948120119 246.82214538574217 6.396899948120119 Q 245.59214538574219 6.396899948120119 244.5571453857422 6.861899948120119 Q 243.5221453857422 7.3268999481201185 242.7421453857422 8.181899948120117 Q 241.9621453857422 9.036899948120118 241.5271453857422 10.161899948120118 Q 241.09214538574219 11.286899948120118 241.09214538574219 12.636899948120117 Q 241.09214538574219 13.986899948120117 241.5271453857422 15.111899948120117 Q 241.9621453857422 16.23689994812012 242.7421453857422 17.091899948120115 Q 243.5221453857422 17.94689994812012 244.5571453857422 18.411899948120116 Q 245.59214538574219 18.87689994812012 246.82214538574217 18.87689994812012 Q 248.32214538574217 18.87689994812012 249.5821453857422 18.171899948120117 Q 250.84214538574219 17.466899948120115 251.8621453857422 16.086899948120116 L 255.34214538574219 19.386899948120117 Q 254.44214538574218 20.616899948120118 253.0771453857422 21.546899948120117 Q 251.7121453857422 22.476899948120117 250.1071453857422 22.971899948120118 Q 248.50214538574218 23.466899948120115 246.82214538574217 23.466899948120115 Z M 288.3254736328125 23.136899948120117 L 288.3254736328125 2.136899948120117 L 304.1954736328125 2.136899948120117 L 304.1954736328125 6.4568999481201175 L 293.4854736328125 6.4568999481201175 L 293.4854736328125 10.446899948120118 L 301.0454736328125 10.446899948120118 L 301.0454736328125 14.646899948120117 L 293.4854736328125 14.646899948120117 L 293.4854736328125 18.816899948120117 L 304.3154736328125 18.816899948120117 L 304.3154736328125 23.136899948120117 Z M 338.36255249023435 23.136899948120117 L 338.36255249023435 2.136899948120117 L 343.22255249023436 2.136899948120117 L 352.55255249023435 14.856899948120118 L 352.4625524902344 2.136899948120117 L 357.3225524902344 2.136899948120117 L 357.3225524902344 23.136899948120117 L 352.7625524902344 23.136899948120117 L 343.1325524902344 9.996899948120118 L 343.22255249023436 23.136899948120117 Z M 397.04217041015625 23.136899948120117 L 397.04217041015625 6.546899948120117 L 390.29217041015625 6.546899948120117 L 390.29217041015625 2.136899948120117 L 408.95217041015627 2.136899948120117 L 408.95217041015627 6.546899948120117 L 402.20217041015627 6.546899948120117 L 402.20217041015627 23.136899948120117 Z M 441.91174682617185 23.136899948120117 L 441.91174682617185 2.136899948120117 L 457.78174682617185 2.136899948120117 L 457.78174682617185 6.4568999481201175 L 447.0717468261719 6.4568999481201175 L 447.0717468261719 10.446899948120118 L 454.6317468261719 10.446899948120118 L 454.6317468261719 14.646899948120117 L 447.0717468261719 14.646899948120117 L 447.0717468261719 18.816899948120117 L 457.90174682617186 18.816899948120117 L 457.90174682617186 23.136899948120117 Z M 491.9488256835937 23.136899948120117 L 491.9488256835937 2.136899948120117 L 502.14882568359377 2.136899948120117 Q 504.30882568359374 2.136899948120117 505.98882568359375 2.9918999481201176 Q 507.66882568359375 3.846899948120118 508.61382568359375 5.361899948120119 Q 509.55882568359374 6.876899948120119 509.55882568359374 8.826899948120118 Q 509.55882568359374 10.836899948120118 508.49382568359374 12.381899948120118 Q 507.42882568359374 13.926899948120118 505.65882568359376 14.706899948120117 L 510.06882568359373 23.136899948120117 L 504.30882568359374 23.136899948120117 L 500.49882568359374 15.426899948120116 L 497.10882568359375 15.426899948120116 L 497.10882568359375 23.136899948120117 Z M 497.10882568359375 11.376899948120117 L 501.66882568359375 11.376899948120117 Q 502.86882568359374 11.376899948120117 503.60382568359375 10.686899948120118 Q 504.33882568359377 9.996899948120118 504.33882568359377 8.886899948120117 Q 504.33882568359377 7.746899948120118 503.60382568359375 7.0718999481201195 Q 502.86882568359374 6.396899948120119 501.66882568359375 6.396899948120119 L 497.10882568359375 6.396899948120119 Z" transform="matrix(0.9602060317993164, 0, 0, 1, 11.489480972290039, 111.83255004882812)" style="text-transform: uppercase; white-space: pre;"/>
  <path d="M 129.424 108.581 C 125.279 108.581 121.421 107.785 117.852 106.196 C 114.283 104.603 111.148 102.377 108.444 99.513 C 105.742 96.65 103.641 93.324 102.146 89.535 C 100.65 85.746 99.903 81.653 99.903 77.255 C 99.903 72.859 100.65 68.766 102.146 64.977 C 103.641 61.189 105.716 57.862 108.365 54.999 C 111.016 52.135 114.125 49.91 117.696 48.317 C 121.265 46.726 125.095 45.932 129.189 45.932 C 133.861 45.932 138.27 46.987 142.415 49.098 C 146.561 51.21 149.945 54.117 152.571 57.819 L 143.044 67.276 C 141.259 64.731 139.199 62.822 136.865 61.55 C 134.53 60.278 131.971 59.641 129.189 59.641 C 126.985 59.641 124.95 60.089 123.086 60.986 C 121.224 61.883 119.598 63.111 118.206 64.674 C 116.817 66.236 115.739 68.088 114.978 70.228 C 114.218 72.368 113.837 74.711 113.837 77.255 C 113.837 79.802 114.231 82.159 115.017 84.328 C 115.805 86.498 116.921 88.376 118.363 89.968 C 119.808 91.559 121.485 92.803 123.402 93.7 C 125.319 94.597 127.405 95.045 129.662 95.045 C 131.813 95.045 133.767 94.641 135.526 93.829 C 137.286 93.019 138.794 91.89 140.054 90.446 C 141.313 89 142.205 87.352 142.73 85.499 L 127.851 85.499 L 127.851 72.57 L 157.372 72.57 L 157.372 76.909 C 157.372 81.479 156.676 85.687 155.285 89.535 C 153.896 93.382 151.954 96.737 149.461 99.6 C 146.969 102.465 144.015 104.676 140.605 106.238 C 137.192 107.801 133.468 108.581 129.424 108.581 Z M 156.934 106.62 L 156.934 45.879 L 185.117 45.879 C 188.895 45.879 192.254 46.703 195.193 48.352 C 198.135 50 200.428 52.285 202.083 55.207 C 203.737 58.128 204.562 61.468 204.562 65.228 C 204.562 69.047 203.617 72.462 201.729 75.469 C 199.839 78.476 197.348 80.762 194.249 82.324 L 206.296 106.62 L 191.179 106.62 L 180.787 84.493 L 170.475 84.493 L 170.475 106.62 L 156.934 106.62 Z M 170.475 72.344 L 183.857 72.344 C 185.957 72.344 187.648 71.707 188.937 70.436 C 190.222 69.163 190.865 67.515 190.865 65.489 C 190.865 63.465 190.222 61.816 188.937 60.545 C 187.648 59.272 185.957 58.635 183.857 58.635 L 170.475 58.635 L 170.475 72.344 Z M 205.727 106.62 L 205.727 45.879 L 249.184 45.879 L 249.184 58.808 L 219.268 58.808 L 219.268 69.742 L 239.028 69.742 L 239.028 82.236 L 219.268 82.236 L 219.268 93.691 L 249.499 93.691 L 249.499 106.62 L 205.727 106.62 Z M 248.526 106.62 L 248.526 45.879 L 291.982 45.879 L 291.982 58.808 L 262.064 58.808 L 262.064 69.742 L 281.826 69.742 L 281.826 82.236 L 262.064 82.236 L 262.064 93.691 L 292.295 93.691 L 292.295 106.62 L 248.526 106.62 Z M 291.31 106.62 L 291.31 45.879 L 304.063 45.879 L 329.099 81.109 L 329.099 45.879 L 341.853 45.879 L 341.853 106.62 L 329.886 106.62 L 304.063 70.001 L 304.063 106.62 L 291.31 106.62 Z" style="fill: rgb(0, 0, 0); white-space: pre;"/>
  <path d="M 341.286 106.485 L 341.286 45.726 L 385.282 45.726 L 385.282 58.66 L 354.897 58.66 L 354.897 70.031 L 375.154 70.031 L 375.154 82.53 L 354.897 82.53 L 354.897 106.485 L 341.286 106.485 Z M 416.933 107.442 C 412.766 107.442 408.888 106.644 405.301 105.055 C 401.711 103.461 398.574 101.235 395.883 98.369 C 393.193 95.506 391.096 92.179 389.592 88.388 C 388.09 84.598 387.338 80.504 387.338 76.107 C 387.338 71.709 388.09 67.614 389.592 63.824 C 391.096 60.034 393.193 56.706 395.883 53.842 C 398.574 50.979 401.711 48.749 405.301 47.159 C 408.888 45.567 412.766 44.771 416.933 44.771 C 421.097 44.771 424.976 45.567 428.562 47.159 C 432.152 48.749 435.289 50.979 437.979 53.842 C 440.669 56.706 442.766 60.034 444.271 63.824 C 445.774 67.614 446.526 71.709 446.526 76.107 C 446.526 80.504 445.774 84.598 444.271 88.388 C 442.766 92.179 440.669 95.506 437.979 98.369 C 435.289 101.235 432.152 103.461 428.562 105.055 C 424.976 106.644 421.097 107.442 416.933 107.442 Z M 416.933 93.727 C 419.147 93.727 421.203 93.275 423.104 92.383 C 425.003 91.483 426.651 90.254 428.05 88.692 C 429.447 87.128 430.541 85.264 431.333 83.094 C 432.124 80.923 432.521 78.594 432.521 76.107 C 432.521 73.56 432.124 71.218 431.333 69.075 C 430.541 66.933 429.447 65.083 428.05 63.521 C 426.651 61.959 425.003 60.727 423.104 59.832 C 421.203 58.933 419.147 58.486 416.933 58.486 C 414.716 58.486 412.657 58.933 410.759 59.832 C 408.859 60.727 407.212 61.959 405.813 63.521 C 404.416 65.083 403.32 66.933 402.53 69.075 C 401.737 71.218 401.342 73.53 401.342 76.021 C 401.342 78.565 401.737 80.923 402.53 83.094 C 403.32 85.264 404.416 87.128 405.813 88.692 C 407.212 90.254 408.859 91.483 410.759 92.383 C 412.657 93.275 414.716 93.727 416.933 93.727 Z M 443.588 106.485 L 464.557 75.153 L 444.537 45.726 L 460.759 45.726 L 472.628 64.042 L 484.497 45.726 L 500.086 45.726 L 480.381 75.153 L 501.748 106.485 L 485.526 106.485 L 472.313 86.176 L 459.176 106.485 L 443.588 106.485 Z" style="fill: rgb(0, 154, 99); white-space: pre; paint-order: fill;"/>
  <g transform="matrix(0.018091, 0, 0, -0.018622, -40.327389, 161.771088)" fill="#000000" stroke="none" style="">
    <path d="M6475 8644 c-42 -38 -705 -595 -803 -675 l-57 -47 -123 9 c-67 4 -173 4 -235 0 -79 -6 -116 -5 -127 3 -14 11 -416 347 -727 608 -84 70 -157 128 -162 128 -13 0 -57 -104 -85 -202 -59 -204 -85 -493 -66 -736 9 -125 44 -405 54 -437 1 -5 -23 -48 -54 -95 -89 -133 -225 -418 -208 -435 2 -2 24 21 48 53 73 93 168 189 201 202 44 19 287 7 417 -20 155 -31 296 -87 395 -154 21 -15 44 -23 50 -20 7 4 9 4 5 -1 -4 -4 25 -43 65 -85 104 -110 165 -237 197 -405 27 -142 49 -175 118 -175 70 0 95 33 116 150 44 244 82 327 211 456 79 80 103 98 195 143 172 84 358 121 603 121 l127 0 68 -67 c37 -38 92 -99 121 -136 29 -37 55 -66 58 -64 7 8 -59 173 -106 262 -26 50 -72 128 -103 175 -57 85 -57 85 -47 135 66 346 65 805 -2 1070 -29 113 -89 276 -101 275 -2 -1 -21 -17 -43 -36z m-2133 -301 c30 -41 143 -196 327 -450 24 -33 43 -65 43 -69 -3 -17 -67 -44 -104 -44 -40 0 -101 44 -113 81 -10 29 -25 23 -19 -8 9 -51 -23 -181 -65 -259 -45 -82 -90 -144 -107 -144 -12 0 -39 115 -54 230 -12 98 -12 332 0 445 13 112 41 265 50 265 3 0 22 -21 42 -47z m2142 -40 c49 -271 47 -593 -6 -803 -6 -25 -14 -49 -18 -53 -9 -10 -80 84 -115 154 -38 73 -55 141 -55 217 0 34 -3 62 -8 62 -4 0 -15 -15 -25 -33 -36 -66 -98 -82 -175 -47 -39 18 -42 21 -30 38 186 259 403 552 408 552 5 0 15 -39 24 -87z" style="fill: rgb(0, 154, 99);"/>
    <path d="M6466 6525 c-205 -129 -404 -302 -560 -488 -27 -32 -47 -59 -45 -61 2 -1 49 2 104 7 95 10 315 -2 359 -19 13 -5 16 0 16 27 0 36 43 235 61 284 51 139 101 237 142 283 11 12 18 22 16 22 -3 0 -45 -25 -93 -55z" style="fill: rgb(0, 154, 99);"/>
    <path d="M4180 6538 c-1 -93 -67 -265 -150 -389 -173 -258 -461 -538 -817 -795 -339 -244 -515 -435 -666 -721 -53 -101 -104 -242 -133 -368 -15 -64 -19 -119 -19 -270 1 -201 3 -219 62 -400 98 -303 325 -574 542 -647 65 -22 77 -23 606 -26 539 -4 1194 10 1440 29 790 61 1025 208 1317 819 82 171 141 295 168 355 61 135 152 310 195 376 61 92 231 263 307 308 32 18 97 47 145 64 81 29 99 31 218 32 84 0 143 -5 168 -13 21 -8 41 -11 44 -8 20 20 -74 231 -150 338 -61 85 -223 241 -313 300 -479 316 -1100 353 -1617 97 -264 -130 -483 -325 -669 -594 -77 -111 -127 -203 -219 -399 -234 -502 -484 -808 -832 -1018 -214 -129 -508 -209 -766 -208 -88 0 -93 16 -7 23 334 29 704 209 936 458 226 241 334 415 501 802 151 350 309 603 523 839 l106 117 -40 105 c-101 261 -261 439 -595 664 -94 63 -263 162 -277 162 -4 0 -8 -15 -8 -32z m2265 -933 c199 -28 384 -99 545 -210 47 -32 90 -58 97 -58 7 0 11 -3 10 -6 0 -3 49 -57 111 -119 62 -62 112 -118 112 -125 0 -7 -44 -23 -112 -39 -254 -61 -461 -203 -615 -422 -59 -83 -167 -287 -234 -439 -76 -176 -167 -337 -188 -337 -19 0 -34 198 -28 356 6 163 26 286 66 397 l19 57 -26 0 c-105 -2 -258 -68 -379 -165 -84 -68 -196 -183 -246 -255 l-17 -24 -1 49 c-3 211 14 335 69 500 46 139 124 306 183 391 16 23 29 46 29 50 0 9 -210 -5 -300 -21 -113 -21 -247 -52 -319 -74 -36 -11 -67 -18 -70 -15 -4 4 35 45 85 93 347 330 778 478 1209 416z" style="fill: rgb(0, 154, 99);"/>
  </g>
</svg>