<?xml version="1.0" standalone="no"?>
<!DOCTYPE svg PUBLIC "-//W3C//DTD SVG 20010904//EN"
 "http://www.w3.org/TR/2001/REC-SVG-20010904/DTD/svg10.dtd">
<svg version="1.0" xmlns="http://www.w3.org/2000/svg"
 width="409.000000pt" height="147.000000pt" viewBox="0 0 409.000000 147.000000"
 preserveAspectRatio="xMidYMid meet">

<g transform="translate(0.000000,147.000000) scale(0.100000,-0.100000)"
fill="#000000" stroke="none">
<path d="M775 1389 c-88 -77 -91 -78 -144 -79 -53 0 -56 2 -142 75 -49 41 -93
75 -98 75 -18 0 -34 -113 -28 -202 5 -81 4 -91 -20 -135 l-26 -48 24 21 c30
26 87 29 150 9 58 -20 87 -50 108 -115 9 -28 21 -52 26 -53 11 -2 32 37 40 75
6 32 54 79 97 95 18 6 57 12 85 12 46 1 55 -2 69 -24 26 -40 28 -22 3 27 -20
38 -23 58 -24 163 0 85 -4 129 -15 151 l-15 32 -90 -79z m-325 -42 c46 -68 46
-69 19 -65 -20 2 -27 -5 -43 -37 -17 -39 -18 -39 -27 -17 -15 39 -7 172 9 172
4 0 23 -24 42 -53z m415 4 c4 -27 3 -70 -1 -97 l-7 -48 -18 23 c-11 13 -19 35
-20 50 0 14 -3 20 -6 14 -2 -7 -14 -13 -25 -13 -11 0 -18 3 -16 8 9 20 74 112
80 112 3 0 9 -22 13 -49z"/>
<path d="M371 985 c-18 -52 -84 -130 -154 -183 -140 -107 -185 -166 -208 -271
-16 -75 14 -170 71 -226 l41 -40 177 -3 c202 -4 356 10 417 37 53 24 80 59
145 193 35 72 65 120 91 143 38 34 52 39 115 37 27 -1 31 2 27 18 -9 35 -84
110 -137 137 -44 23 -64 27 -141 27 -77 1 -98 -3 -147 -26 -79 -37 -135 -99
-198 -218 -29 -56 -72 -121 -96 -145 -50 -52 -126 -92 -186 -100 l-43 -5 50
18 c118 42 169 94 245 250 28 59 70 128 92 155 44 53 44 62 -2 126 -25 34
-122 111 -140 111 -3 0 -12 -16 -19 -35z m553 -184 c41 -18 106 -67 106 -79 0
-4 -20 -15 -45 -26 -63 -25 -99 -65 -146 -157 -21 -44 -42 -79 -46 -79 -3 0
-3 36 0 80 4 71 3 80 -12 80 -20 0 -81 -43 -94 -65 -32 -58 -21 68 12 133 12
23 21 44 21 48 0 6 -58 0 -110 -13 l-25 -6 20 23 c70 78 217 107 319 61z"/>
<path d="M789 960 l-64 -59 53 -1 c43 0 52 3 52 18 0 9 9 36 20 60 10 23 15
42 11 42 -5 0 -37 -27 -72 -60z"/>
<path d="M3020 445 l0 -185 55 0 55 0 0 75 0 75 64 0 c60 0 64 -2 70 -25 9
-35 65 -96 103 -111 43 -19 125 -18 171 1 75 32 112 86 112 165 0 116 -80 190
-202 190 -89 -1 -168 -50 -184 -117 -6 -21 -11 -23 -70 -23 l-64 0 0 30 0 30
65 0 65 0 0 40 0 40 -120 0 -120 0 0 -185z m468 99 c29 -8 52 -52 52 -101 0
-102 -122 -138 -164 -48 -28 58 -14 114 35 141 27 15 44 17 77 8z"/>
<path d="M3762 553 c30 -43 57 -83 61 -89 3 -6 -23 -53 -59 -105 l-65 -94 52
-3 c28 -2 57 -1 64 2 7 2 27 30 44 62 l33 57 35 -62 34 -61 64 0 64 0 -69 96
-70 96 53 77 c29 42 57 82 61 89 5 9 -9 12 -59 12 l-65 0 -22 -45 c-12 -25
-25 -45 -28 -45 -3 0 -16 20 -28 45 l-22 45 -66 0 -66 0 54 -77z"/>
</g>
</svg>
