<svg width="294" height="108" viewBox="0 0 294 108" fill="none" xmlns="http://www.w3.org/2000/svg">
<path d="M34.0405 73.4C35.6885 73.816 36.5125 74.848 36.5125 76.496C36.5125 77.616 36.0885 78.48 35.2405 79.088C34.4085 79.696 33.1605 80 31.4965 80H25.3765V67.28H31.2805C32.7845 67.28 33.9605 67.568 34.8085 68.144C35.6565 68.704 36.0805 69.504 36.0805 70.544C36.0805 71.216 35.8965 71.8 35.5285 72.296C35.1765 72.776 34.6805 73.144 34.0405 73.4ZM27.6325 72.752H31.0885C31.9685 72.752 32.6325 72.592 33.0805 72.272C33.5445 71.952 33.7765 71.488 33.7765 70.88C33.7765 69.664 32.8805 69.056 31.0885 69.056H27.6325V72.752ZM31.3285 78.224C32.2885 78.224 33.0085 78.072 33.4885 77.768C33.9685 77.464 34.2085 76.992 34.2085 76.352C34.2085 75.696 33.9845 75.208 33.5365 74.888C33.1045 74.568 32.4165 74.408 31.4725 74.408H27.6325V78.224H31.3285ZM51.6147 73.712C51.6147 73.888 51.5987 74.12 51.5667 74.408H41.2467C41.3907 75.528 41.8787 76.432 42.7107 77.12C43.5587 77.792 44.6067 78.128 45.8547 78.128C47.3747 78.128 48.5987 77.616 49.5267 76.592L50.7987 78.08C50.2227 78.752 49.5027 79.264 48.6387 79.616C47.7907 79.968 46.8387 80.144 45.7827 80.144C44.4387 80.144 43.2467 79.872 42.2067 79.328C41.1667 78.768 40.3587 77.992 39.7827 77C39.2227 76.008 38.9427 74.888 38.9427 73.64C38.9427 72.408 39.2147 71.296 39.7587 70.304C40.3187 69.312 41.0787 68.544 42.0387 68C43.0147 67.44 44.1107 67.16 45.3267 67.16C46.5427 67.16 47.6227 67.44 48.5667 68C49.5267 68.544 50.2707 69.312 50.7987 70.304C51.3427 71.296 51.6147 72.432 51.6147 73.712ZM45.3267 69.104C44.2227 69.104 43.2947 69.44 42.5427 70.112C41.8067 70.784 41.3747 71.664 41.2467 72.752H49.4067C49.2787 71.68 48.8387 70.808 48.0867 70.136C47.3507 69.448 46.4307 69.104 45.3267 69.104ZM61.933 67.16C63.165 67.16 64.269 67.432 65.245 67.976C66.221 68.52 66.981 69.28 67.525 70.256C68.085 71.232 68.365 72.36 68.365 73.64C68.365 74.92 68.085 76.056 67.525 77.048C66.981 78.024 66.221 78.784 65.245 79.328C64.269 79.872 63.165 80.144 61.933 80.144C61.021 80.144 60.181 79.968 59.413 79.616C58.661 79.264 58.021 78.752 57.493 78.08V84.656H55.189V67.28H57.397V69.296C57.909 68.592 58.557 68.064 59.341 67.712C60.125 67.344 60.989 67.16 61.933 67.16ZM61.741 78.128C62.557 78.128 63.285 77.944 63.925 77.576C64.581 77.192 65.093 76.664 65.461 75.992C65.845 75.304 66.037 74.52 66.037 73.64C66.037 72.76 65.845 71.984 65.461 71.312C65.093 70.624 64.581 70.096 63.925 69.728C63.285 69.36 62.557 69.176 61.741 69.176C60.941 69.176 60.213 69.368 59.557 69.752C58.917 70.12 58.405 70.64 58.021 71.312C57.653 71.984 57.469 72.76 57.469 73.64C57.469 74.52 57.653 75.304 58.021 75.992C58.389 76.664 58.901 77.192 59.557 77.576C60.213 77.944 60.941 78.128 61.741 78.128ZM71.7125 67.28H74.0165V72.68H81.2645V67.28H83.5685V80H81.2645V74.672H74.0165V80H71.7125V67.28ZM99.4004 67.28L93.2324 81.272C92.6884 82.568 92.0484 83.48 91.3124 84.008C90.5924 84.536 89.7204 84.8 88.6964 84.8C88.0724 84.8 87.4644 84.696 86.8724 84.488C86.2964 84.296 85.8164 84.008 85.4324 83.624L86.4164 81.896C87.0724 82.52 87.8324 82.832 88.6964 82.832C89.2564 82.832 89.7204 82.68 90.0884 82.376C90.4724 82.088 90.8164 81.584 91.1204 80.864L91.5284 79.976L85.9124 67.28H88.3124L92.7524 77.456L97.1444 67.28H99.4004ZM111.31 69.296H106.654V80H104.35V69.296H99.6937V67.28H111.31V69.296ZM119.546 71.6C121.162 71.616 122.394 71.984 123.242 72.704C124.09 73.424 124.514 74.44 124.514 75.752C124.514 77.128 124.05 78.192 123.122 78.944C122.21 79.68 120.898 80.04 119.186 80.024L113.666 80V67.28H115.97V71.576L119.546 71.6ZM118.994 78.272C120.034 78.288 120.818 78.08 121.346 77.648C121.89 77.216 122.162 76.576 122.162 75.728C122.162 74.896 121.898 74.288 121.37 73.904C120.858 73.52 120.066 73.32 118.994 73.304L115.97 73.256V78.248L118.994 78.272ZM133.014 80.144C131.718 80.144 130.558 79.864 129.534 79.304C128.526 78.744 127.734 77.976 127.158 77C126.582 76.008 126.294 74.888 126.294 73.64C126.294 72.392 126.582 71.28 127.158 70.304C127.734 69.312 128.526 68.544 129.534 68C130.558 67.44 131.718 67.16 133.014 67.16C134.166 67.16 135.19 67.392 136.086 67.856C136.998 68.32 137.702 68.992 138.198 69.872L136.446 71C136.046 70.392 135.55 69.936 134.958 69.632C134.366 69.328 133.71 69.176 132.99 69.176C132.158 69.176 131.406 69.36 130.734 69.728C130.078 70.096 129.558 70.624 129.174 71.312C128.806 71.984 128.622 72.76 128.622 73.64C128.622 74.536 128.806 75.328 129.174 76.016C129.558 76.688 130.078 77.208 130.734 77.576C131.406 77.944 132.158 78.128 132.99 78.128C133.71 78.128 134.366 77.976 134.958 77.672C135.55 77.368 136.046 76.912 136.446 76.304L138.198 77.408C137.702 78.288 136.998 78.968 136.086 79.448C135.19 79.912 134.166 80.144 133.014 80.144ZM150.983 67.28V80H148.919V75.968H145.223H144.959L142.175 80H139.703L142.799 75.656C141.839 75.368 141.103 74.896 140.591 74.24C140.079 73.568 139.823 72.736 139.823 71.744C139.823 70.288 140.319 69.184 141.311 68.432C142.303 67.664 143.671 67.28 145.415 67.28H150.983ZM142.175 71.816C142.175 72.664 142.439 73.296 142.967 73.712C143.511 74.112 144.319 74.312 145.391 74.312H148.919V69.296H145.487C143.279 69.296 142.175 70.136 142.175 71.816ZM170.587 73.4C172.235 73.816 173.059 74.848 173.059 76.496C173.059 77.616 172.635 78.48 171.787 79.088C170.955 79.696 169.707 80 168.043 80H161.923V67.28H167.827C169.331 67.28 170.507 67.568 171.355 68.144C172.203 68.704 172.627 69.504 172.627 70.544C172.627 71.216 172.443 71.8 172.075 72.296C171.723 72.776 171.227 73.144 170.587 73.4ZM164.179 72.752H167.635C168.515 72.752 169.179 72.592 169.627 72.272C170.091 71.952 170.323 71.488 170.323 70.88C170.323 69.664 169.427 69.056 167.635 69.056H164.179V72.752ZM167.875 78.224C168.835 78.224 169.555 78.072 170.035 77.768C170.515 77.464 170.755 76.992 170.755 76.352C170.755 75.696 170.531 75.208 170.083 74.888C169.651 74.568 168.963 74.408 168.019 74.408H164.179V78.224H167.875ZM183.111 67.28H185.415V72.68H192.663V67.28H194.967V80H192.663V74.672H185.415V80H183.111V67.28ZM203.983 67.16C205.743 67.16 207.087 67.592 208.015 68.456C208.959 69.32 209.431 70.608 209.431 72.32V80H207.247V78.32C206.863 78.912 206.311 79.368 205.591 79.688C204.887 79.992 204.047 80.144 203.071 80.144C201.647 80.144 200.503 79.8 199.639 79.112C198.791 78.424 198.367 77.52 198.367 76.4C198.367 75.28 198.775 74.384 199.591 73.712C200.407 73.024 201.703 72.68 203.479 72.68H207.127V72.224C207.127 71.232 206.839 70.472 206.263 69.944C205.687 69.416 204.839 69.152 203.719 69.152C202.967 69.152 202.231 69.28 201.511 69.536C200.791 69.776 200.183 70.104 199.687 70.52L198.727 68.792C199.383 68.264 200.167 67.864 201.079 67.592C201.991 67.304 202.959 67.16 203.983 67.16ZM203.455 78.368C204.335 78.368 205.095 78.176 205.735 77.792C206.375 77.392 206.839 76.832 207.127 76.112V74.336H203.575C201.623 74.336 200.647 74.992 200.647 76.304C200.647 76.944 200.895 77.448 201.391 77.816C201.887 78.184 202.575 78.368 203.455 78.368ZM223.732 67.28V80H221.428V74.864C220.052 75.504 218.684 75.824 217.324 75.824C215.74 75.824 214.516 75.456 213.652 74.72C212.788 73.984 212.356 72.88 212.356 71.408V67.28H214.66V71.264C214.66 72.144 214.932 72.808 215.476 73.256C216.036 73.704 216.812 73.928 217.804 73.928C218.924 73.928 220.132 73.648 221.428 73.088V67.28H223.732ZM232.741 67.16C234.501 67.16 235.845 67.592 236.773 68.456C237.717 69.32 238.189 70.608 238.189 72.32V80H236.005V78.32C235.621 78.912 235.069 79.368 234.349 79.688C233.645 79.992 232.805 80.144 231.829 80.144C230.405 80.144 229.261 79.8 228.397 79.112C227.549 78.424 227.125 77.52 227.125 76.4C227.125 75.28 227.533 74.384 228.349 73.712C229.165 73.024 230.461 72.68 232.237 72.68H235.885V72.224C235.885 71.232 235.597 70.472 235.021 69.944C234.445 69.416 233.597 69.152 232.477 69.152C231.725 69.152 230.989 69.28 230.269 69.536C229.549 69.776 228.941 70.104 228.445 70.52L227.485 68.792C228.141 68.264 228.925 67.864 229.837 67.592C230.749 67.304 231.717 67.16 232.741 67.16ZM232.213 78.368C233.093 78.368 233.853 78.176 234.493 77.792C235.133 77.392 235.597 76.832 235.885 76.112V74.336H232.333C230.381 74.336 229.405 74.992 229.405 76.304C229.405 76.944 229.653 77.448 230.149 77.816C230.645 78.184 231.333 78.368 232.213 78.368ZM253.257 67.28V80H250.953V69.296H245.481L245.337 72.128C245.257 73.84 245.105 75.272 244.881 76.424C244.657 77.56 244.289 78.472 243.777 79.16C243.265 79.848 242.553 80.192 241.641 80.192C241.225 80.192 240.753 80.12 240.225 79.976L240.369 78.032C240.577 78.08 240.769 78.104 240.945 78.104C241.585 78.104 242.065 77.824 242.385 77.264C242.705 76.704 242.913 76.04 243.009 75.272C243.105 74.504 243.193 73.408 243.273 71.984L243.489 67.28H253.257ZM263.16 80.144C261.896 80.144 260.76 79.864 259.752 79.304C258.744 78.744 257.952 77.976 257.376 77C256.816 76.008 256.536 74.888 256.536 73.64C256.536 72.392 256.816 71.28 257.376 70.304C257.952 69.312 258.744 68.544 259.752 68C260.76 67.44 261.896 67.16 263.16 67.16C264.424 67.16 265.552 67.44 266.544 68C267.552 68.544 268.336 69.312 268.896 70.304C269.472 71.28 269.76 72.392 269.76 73.64C269.76 74.888 269.472 76.008 268.896 77C268.336 77.976 267.552 78.744 266.544 79.304C265.552 79.864 264.424 80.144 263.16 80.144ZM263.16 78.128C263.976 78.128 264.704 77.944 265.344 77.576C266 77.192 266.512 76.664 266.88 75.992C267.248 75.304 267.432 74.52 267.432 73.64C267.432 72.76 267.248 71.984 266.88 71.312C266.512 70.624 266 70.096 265.344 69.728C264.704 69.36 263.976 69.176 263.16 69.176C262.344 69.176 261.608 69.36 260.952 69.728C260.312 70.096 259.8 70.624 259.416 71.312C259.048 71.984 258.864 72.76 258.864 73.64C258.864 74.52 259.048 75.304 259.416 75.992C259.8 76.664 260.312 77.192 260.952 77.576C261.608 77.944 262.344 78.128 263.16 78.128Z" fill="black" fill-opacity="0.54"/>
<g opacity="0.8">
<line x1="84.4135" y1="49.0123" x2="146.22" y2="16.1493" stroke="#9A0037" stroke-opacity="0.7" stroke-width="2" stroke-linecap="round"/>
<line x1="147.925" y1="15.5863" x2="209.731" y2="48.4493" stroke="#9A0037" stroke-opacity="0.7" stroke-width="2" stroke-linecap="round"/>
</g>
<rect width="294" height="108" fill="#C4C4C4" fill-opacity="0.05"/>
</svg>
