<svg width="467" height="142" viewBox="0 0 467 142" fill="none" xmlns="http://www.w3.org/2000/svg">
<g filter="url(#filter0_d_45_20)">
<rect x="25" y="20" width="417" height="92" rx="45" fill="url(#paint0_linear_45_20)" fill-opacity="0.9"/>
<path opacity="0.9" d="M85.568 77.256C83.3067 77.256 81.2693 76.7653 79.456 75.784C77.6427 74.7813 76.2133 73.4053 75.168 71.656C74.144 69.9067 73.632 67.9547 73.632 65.8C73.632 63.6453 74.144 61.6933 75.168 59.944C76.2133 58.1947 77.6427 56.8293 79.456 55.848C81.2693 54.8453 83.3067 54.344 85.568 54.344C87.808 54.344 89.8347 54.8453 91.648 55.848C93.4613 56.8293 94.88 58.1947 95.904 59.944C96.928 61.672 97.44 63.624 97.44 65.8C97.44 67.976 96.928 69.9387 95.904 71.688C94.88 73.416 93.4613 74.7813 91.648 75.784C89.8347 76.7653 87.808 77.256 85.568 77.256ZM85.568 74.408C87.2107 74.408 88.6827 74.0347 89.984 73.288C91.3067 72.5413 92.3413 71.5173 93.088 70.216C93.856 68.8933 94.24 67.4213 94.24 65.8C94.24 64.1787 93.856 62.7173 93.088 61.416C92.3413 60.0933 91.3067 59.0587 89.984 58.312C88.6827 57.5653 87.2107 57.192 85.568 57.192C83.9253 57.192 82.432 57.5653 81.088 58.312C79.7653 59.0587 78.72 60.0933 77.952 61.416C77.2053 62.7173 76.832 64.1787 76.832 65.8C76.832 67.4213 77.2053 68.8933 77.952 70.216C78.72 71.5173 79.7653 72.5413 81.088 73.288C82.432 74.0347 83.9253 74.408 85.568 74.408ZM114.366 62.728H108.158V77H105.086V62.728H98.878V60.04H114.366V62.728ZM133.219 60.04V77H130.147V62.728H120.579V77H117.507V60.04H133.219ZM148.156 59.88C149.798 59.88 151.27 60.2427 152.572 60.968C153.873 61.6933 154.886 62.7067 155.612 64.008C156.358 65.3093 156.732 66.8133 156.732 68.52C156.732 70.2267 156.358 71.7413 155.612 73.064C154.886 74.3653 153.873 75.3787 152.572 76.104C151.27 76.8293 149.798 77.192 148.156 77.192C146.94 77.192 145.82 76.9573 144.796 76.488C143.793 76.0187 142.94 75.336 142.236 74.44V83.208H139.164V60.04H142.108V62.728C142.79 61.7893 143.654 61.0853 144.7 60.616C145.745 60.1253 146.897 59.88 148.156 59.88ZM147.9 74.504C148.988 74.504 149.958 74.2587 150.812 73.768C151.686 73.256 152.369 72.552 152.86 71.656C153.372 70.7387 153.628 69.6933 153.628 68.52C153.628 67.3467 153.372 66.312 152.86 65.416C152.369 64.4987 151.686 63.7947 150.812 63.304C149.958 62.8133 148.988 62.568 147.9 62.568C146.833 62.568 145.862 62.824 144.988 63.336C144.134 63.8267 143.452 64.52 142.94 65.416C142.449 66.312 142.204 67.3467 142.204 68.52C142.204 69.6933 142.449 70.7387 142.94 71.656C143.43 72.552 144.113 73.256 144.988 73.768C145.862 74.2587 146.833 74.504 147.9 74.504ZM167.087 59.88C169.433 59.88 171.225 60.456 172.463 61.608C173.721 62.76 174.351 64.4773 174.351 66.76V77H171.439V74.76C170.927 75.5493 170.191 76.1573 169.231 76.584C168.292 76.9893 167.172 77.192 165.871 77.192C163.972 77.192 162.447 76.7333 161.295 75.816C160.164 74.8987 159.599 73.6933 159.599 72.2C159.599 70.7067 160.143 69.512 161.231 68.616C162.319 67.6987 164.047 67.24 166.415 67.24H171.279V66.632C171.279 65.3093 170.895 64.296 170.127 63.592C169.359 62.888 168.228 62.536 166.735 62.536C165.732 62.536 164.751 62.7067 163.791 63.048C162.831 63.368 162.02 63.8053 161.359 64.36L160.079 62.056C160.953 61.352 161.999 60.8187 163.215 60.456C164.431 60.072 165.721 59.88 167.087 59.88ZM166.383 74.824C167.556 74.824 168.569 74.568 169.423 74.056C170.276 73.5227 170.895 72.776 171.279 71.816V69.448H166.543C163.94 69.448 162.639 70.3227 162.639 72.072C162.639 72.9253 162.969 73.5973 163.631 74.088C164.292 74.5787 165.209 74.824 166.383 74.824ZM191.434 68.2C193.632 68.7547 194.73 70.1307 194.73 72.328C194.73 73.8213 194.165 74.9733 193.034 75.784C191.925 76.5947 190.261 77 188.042 77H179.882V60.04H187.754C189.76 60.04 191.328 60.424 192.458 61.192C193.589 61.9387 194.154 63.0053 194.154 64.392C194.154 65.288 193.909 66.0667 193.418 66.728C192.949 67.368 192.288 67.8587 191.434 68.2ZM182.89 67.336H187.498C188.672 67.336 189.557 67.1227 190.154 66.696C190.773 66.2693 191.082 65.6507 191.082 64.84C191.082 63.2187 189.888 62.408 187.498 62.408H182.89V67.336ZM187.818 74.632C189.098 74.632 190.058 74.4293 190.698 74.024C191.338 73.6187 191.658 72.9893 191.658 72.136C191.658 71.2613 191.36 70.6107 190.762 70.184C190.186 69.7573 189.269 69.544 188.01 69.544H182.89V74.632H187.818ZM199.539 60.04H202.611V72.392L213.01 60.04H215.795V77H212.722V64.648L202.355 77H199.539V60.04ZM234.397 62.728H228.189V77H225.117V62.728H218.909V60.04H234.397V62.728ZM245.379 65.8C247.533 65.8213 249.176 66.312 250.307 67.272C251.437 68.232 252.003 69.5867 252.003 71.336C252.003 73.1707 251.384 74.5893 250.147 75.592C248.931 76.5733 247.181 77.0533 244.899 77.032L237.539 77V60.04H240.611V65.768L245.379 65.8ZM244.643 74.696C246.029 74.7173 247.075 74.44 247.779 73.864C248.504 73.288 248.867 72.4347 248.867 71.304C248.867 70.1947 248.515 69.384 247.811 68.872C247.128 68.36 246.072 68.0933 244.643 68.072L240.611 68.008V74.664L244.643 74.696ZM273.531 59.88C275.173 59.88 276.645 60.2427 277.947 60.968C279.248 61.6933 280.261 62.7067 280.987 64.008C281.733 65.3093 282.107 66.8133 282.107 68.52C282.107 70.2267 281.733 71.7413 280.987 73.064C280.261 74.3653 279.248 75.3787 277.947 76.104C276.645 76.8293 275.173 77.192 273.531 77.192C272.315 77.192 271.195 76.9573 270.171 76.488C269.168 76.0187 268.315 75.336 267.611 74.44V83.208H264.539V60.04H267.483V62.728C268.165 61.7893 269.029 61.0853 270.075 60.616C271.12 60.1253 272.272 59.88 273.531 59.88ZM273.275 74.504C274.363 74.504 275.333 74.2587 276.187 73.768C277.061 73.256 277.744 72.552 278.235 71.656C278.747 70.7387 279.003 69.6933 279.003 68.52C279.003 67.3467 278.747 66.312 278.235 65.416C277.744 64.4987 277.061 63.7947 276.187 63.304C275.333 62.8133 274.363 62.568 273.275 62.568C272.208 62.568 271.237 62.824 270.363 63.336C269.509 63.8267 268.827 64.52 268.315 65.416C267.824 66.312 267.579 67.3467 267.579 68.52C267.579 69.6933 267.824 70.7387 268.315 71.656C268.805 72.552 269.488 73.256 270.363 73.768C271.237 74.2587 272.208 74.504 273.275 74.504ZM301.898 68.616C301.898 68.8507 301.876 69.16 301.834 69.544H288.074C288.266 71.0373 288.916 72.2427 290.026 73.16C291.156 74.056 292.554 74.504 294.218 74.504C296.244 74.504 297.876 73.8213 299.114 72.456L300.81 74.44C300.042 75.336 299.082 76.0187 297.93 76.488C296.799 76.9573 295.53 77.192 294.122 77.192C292.33 77.192 290.74 76.8293 289.354 76.104C287.967 75.3573 286.89 74.3227 286.122 73C285.375 71.6773 285.002 70.184 285.002 68.52C285.002 66.8773 285.364 65.3947 286.09 64.072C286.836 62.7493 287.85 61.7253 289.13 61C290.431 60.2533 291.892 59.88 293.514 59.88C295.135 59.88 296.575 60.2533 297.834 61C299.114 61.7253 300.106 62.7493 300.81 64.072C301.535 65.3947 301.898 66.9093 301.898 68.616ZM293.514 62.472C292.042 62.472 290.804 62.92 289.802 63.816C288.82 64.712 288.244 65.8853 288.074 67.336H298.954C298.783 65.9067 298.196 64.744 297.194 63.848C296.212 62.9307 294.986 62.472 293.514 62.472ZM315.473 68.168C316.603 68.4667 317.478 68.9467 318.097 69.608C318.715 70.2693 319.025 71.0907 319.025 72.072C319.025 73.0747 318.683 73.9707 318.001 74.76C317.318 75.528 316.369 76.136 315.153 76.584C313.958 77.0107 312.614 77.224 311.121 77.224C309.862 77.224 308.625 77.064 307.409 76.744C306.214 76.4027 305.147 75.9227 304.209 75.304L305.137 72.968C305.947 73.48 306.875 73.8853 307.921 74.184C308.966 74.4613 310.022 74.6 311.089 74.6C312.539 74.6 313.691 74.3547 314.545 73.864C315.419 73.352 315.857 72.6693 315.857 71.816C315.857 71.0267 315.505 70.4187 314.801 69.992C314.118 69.5653 313.147 69.352 311.889 69.352H308.785V67.144H311.665C312.817 67.144 313.723 66.9413 314.385 66.536C315.046 66.1307 315.377 65.576 315.377 64.872C315.377 64.104 314.982 63.5067 314.193 63.08C313.425 62.6533 312.379 62.44 311.057 62.44C309.371 62.44 307.59 62.8773 305.713 63.752L304.881 61.384C306.95 60.3387 309.115 59.816 311.377 59.816C312.742 59.816 313.969 60.008 315.057 60.392C316.145 60.776 316.998 61.32 317.617 62.024C318.235 62.728 318.545 63.528 318.545 64.424C318.545 65.256 318.267 66.0027 317.713 66.664C317.158 67.3253 316.411 67.8267 315.473 68.168ZM338.703 59.88C340.345 59.88 341.817 60.2533 343.119 61C344.42 61.7253 345.444 62.7493 346.191 64.072C346.937 65.3733 347.311 66.856 347.311 68.52C347.311 70.184 346.937 71.6773 346.191 73C345.444 74.3013 344.42 75.3253 343.119 76.072C341.817 76.8187 340.345 77.192 338.703 77.192C337.209 77.192 335.855 76.8827 334.639 76.264C333.423 75.6453 332.42 74.7813 331.631 73.672C330.863 72.5413 330.383 71.2613 330.191 69.832H326.767V77H323.695V60.04H326.767V66.984H330.223C330.436 65.576 330.927 64.3387 331.695 63.272C332.484 62.184 333.476 61.352 334.671 60.776C335.887 60.1787 337.231 59.88 338.703 59.88ZM338.703 74.504C339.748 74.504 340.687 74.2587 341.519 73.768C342.372 73.2773 343.044 72.584 343.535 71.688C344.025 70.7707 344.271 69.7147 344.271 68.52C344.271 67.3467 344.025 66.312 343.535 65.416C343.044 64.4987 342.372 63.7947 341.519 63.304C340.687 62.8133 339.748 62.568 338.703 62.568C337.657 62.568 336.708 62.8133 335.855 63.304C335.001 63.7947 334.329 64.4987 333.839 65.416C333.369 66.312 333.135 67.3467 333.135 68.52C333.135 69.7147 333.369 70.7707 333.839 71.688C334.329 72.584 335.001 73.2773 335.855 73.768C336.708 74.2587 337.657 74.504 338.703 74.504ZM371.278 60.04V77H368.494V64.616L362.158 75.08H360.814L354.542 64.584V77H351.726V60.04H354.894L361.55 71.496L368.398 60.04H371.278ZM392.585 68.616C392.585 68.8507 392.564 69.16 392.521 69.544H378.761C378.953 71.0373 379.604 72.2427 380.713 73.16C381.844 74.056 383.241 74.504 384.905 74.504C386.932 74.504 388.564 73.8213 389.801 72.456L391.497 74.44C390.729 75.336 389.769 76.0187 388.617 76.488C387.487 76.9573 386.217 77.192 384.809 77.192C383.017 77.192 381.428 76.8293 380.041 76.104C378.655 75.3573 377.577 74.3227 376.809 73C376.063 71.6773 375.689 70.184 375.689 68.52C375.689 66.8773 376.052 65.3947 376.777 64.072C377.524 62.7493 378.537 61.7253 379.817 61C381.119 60.2533 382.58 59.88 384.201 59.88C385.823 59.88 387.263 60.2533 388.521 61C389.801 61.7253 390.793 62.7493 391.497 64.072C392.223 65.3947 392.585 66.9093 392.585 68.616ZM384.201 62.472C382.729 62.472 381.492 62.92 380.489 63.816C379.508 64.712 378.932 65.8853 378.761 67.336H389.641C389.471 65.9067 388.884 64.744 387.881 63.848C386.9 62.9307 385.673 62.472 384.201 62.472Z" fill="black" fill-opacity="0.9"/>
</g>
<defs>
<filter id="filter0_d_45_20" x="0" y="0" width="477" height="142" filterUnits="userSpaceOnUse" color-interpolation-filters="sRGB">
<feFlood flood-opacity="0" result="BackgroundImageFix"/>
<feColorMatrix in="SourceAlpha" type="matrix" values="0 0 0 0 0 0 0 0 0 0 0 0 0 0 0 0 0 0 127 0" result="hardAlpha"/>
<feOffset dy="5"/>
<feGaussianBlur stdDeviation="12.5"/>
<feComposite in2="hardAlpha" operator="out"/>
<feColorMatrix type="matrix" values="0 0 0 0 0 0 0 0 0 0.603922 0 0 0 0 0.388235 0 0 0 0.3 0"/>
<feBlend mode="normal" in2="BackgroundImageFix" result="effect1_dropShadow_45_20"/>
<feBlend mode="normal" in="SourceGraphic" in2="effect1_dropShadow_45_20" result="shape"/>
</filter>
<linearGradient id="paint0_linear_45_20" x1="513.29" y1="66.0001" x2="-106.838" y2="66" gradientUnits="userSpaceOnUse">
<stop offset="0.0768395" stop-color="#009A63" stop-opacity="0.7"/>
<stop offset="0.843862" stop-color="#9A0037" stop-opacity="0.7"/>
</linearGradient>
</defs>
</svg>
