<?xml version="1.0" encoding="utf-8"?>
<svg viewBox="2.034 2.2 256.701 66.449" width="256.701" height="66.449" xmlns="http://www.w3.org/2000/svg">
  <path d="M 128.77200164794922 82.54500274658203 Q 124.82200164794922 82.54500274658203 121.42200164794922 81.17000274658203 Q 118.02200164794922 79.79500274658203 115.44700164794922 77.32000274658203 Q 112.87200164794922 74.84500274658203 111.44700164794922 71.57000274658203 Q 110.02200164794922 68.29500274658203 110.02200164794922 64.49500274658203 Q 110.02200164794922 60.695002746582034 111.44700164794922 57.42000274658203 Q 112.87200164794922 54.14500274658203 115.39700164794922 51.67000274658203 Q 117.92200164794922 49.19500274658203 121.32200164794922 47.82000274658203 Q 124.72200164794921 46.44500274658203 128.62200164794922 46.44500274658203 Q 133.0720016479492 46.44500274658203 137.02200164794922 48.27000274658203 Q 140.9720016479492 50.095002746582026 143.4720016479492 53.29500274658203 L 137.42200164794923 58.74500274658203 Q 135.7220016479492 56.54500274658203 133.49700164794922 55.445002746582034 Q 131.27200164794922 54.345002746582026 128.62200164794922 54.345002746582026 Q 126.52200164794922 54.345002746582026 124.74700164794922 55.12000274658203 Q 122.97200164794921 55.89500274658203 121.64700164794922 57.24500274658203 Q 120.32200164794922 58.595002746582026 119.59700164794921 60.445002746582034 Q 118.87200164794922 62.29500274658203 118.87200164794922 64.49500274658203 Q 118.87200164794922 66.69500274658203 119.62200164794922 68.57000274658203 Q 120.37200164794922 70.44500274658203 121.74700164794922 71.82000274658203 Q 123.12200164794922 73.19500274658203 124.94700164794922 73.97000274658203 Q 126.77200164794922 74.74500274658203 128.92200164794923 74.74500274658203 Q 130.9720016479492 74.74500274658203 132.64700164794922 74.04500274658203 Q 134.3220016479492 73.34500274658203 135.52200164794922 72.09500274658203 Q 136.7220016479492 70.84500274658203 137.2220016479492 69.24500274658203 L 127.77200164794922 69.24500274658203 L 127.77200164794922 61.79500274658203 L 146.52200164794922 61.79500274658203 L 146.52200164794922 64.29500274658203 Q 146.52200164794922 68.24500274658203 145.1970016479492 71.57000274658203 Q 143.87200164794922 74.89500274658204 141.49700164794922 77.37000274658203 Q 139.12200164794922 79.84500274658203 135.87200164794922 81.19500274658203 Q 132.62200164794922 82.54500274658203 128.77200164794922 82.54500274658203 Z M 146.2427734375 81.41500091552734 L 146.2427734375 46.415000915527344 L 164.1427734375 46.415000915527344 Q 167.7427734375 46.415000915527344 170.5427734375 47.84000091552734 Q 173.3427734375 49.265000915527345 174.9177734375 51.790000915527344 Q 176.4927734375 54.31500091552734 176.4927734375 57.56500091552734 Q 176.4927734375 60.86500091552735 174.6927734375 63.46500091552734 Q 172.8927734375 66.06500091552735 169.9427734375 67.41500091552734 L 177.5927734375 81.41500091552734 L 167.9927734375 81.41500091552734 L 161.3927734375 68.66500091552734 L 154.8427734375 68.66500091552734 L 154.8427734375 81.41500091552734 Z M 154.8427734375 61.665000915527344 L 163.3427734375 61.665000915527344 Q 165.3427734375 61.665000915527344 166.5677734375 60.56500091552734 Q 167.7927734375 59.46500091552734 167.7927734375 57.71500091552734 Q 167.7927734375 55.96500091552734 166.5677734375 54.86500091552735 Q 165.3427734375 53.76500091552734 163.3427734375 53.76500091552734 L 154.8427734375 53.76500091552734 Z M 177.23201599121094 81.41500091552734 L 177.23201599121094 46.415000915527344 L 204.83201599121094 46.415000915527344 L 204.83201599121094 53.86500091552735 L 185.83201599121094 53.86500091552735 L 185.83201599121094 60.165000915527344 L 198.38201599121095 60.165000915527344 L 198.38201599121095 67.36500091552735 L 185.83201599121094 67.36500091552735 L 185.83201599121094 73.96500091552734 L 205.03201599121093 73.96500091552734 L 205.03201599121093 81.41500091552734 Z M 204.41345825195313 81.41500091552734 L 204.41345825195313 46.415000915527344 L 232.01345825195312 46.415000915527344 L 232.01345825195312 53.86500091552735 L 213.01345825195312 53.86500091552735 L 213.01345825195312 60.165000915527344 L 225.56345825195314 60.165000915527344 L 225.56345825195314 67.36500091552735 L 213.01345825195312 67.36500091552735 L 213.01345825195312 73.96500091552734 L 232.2134582519531 73.96500091552734 L 232.2134582519531 81.41500091552734 Z M 231.5868896484375 81.41500091552734 L 231.5868896484375 46.415000915527344 L 239.6868896484375 46.415000915527344 L 255.5868896484375 66.71500091552734 L 255.5868896484375 46.415000915527344 L 263.6868896484375 46.415000915527344 L 263.6868896484375 81.41500091552734 L 256.0868896484375 81.41500091552734 L 239.6868896484375 60.31500091552734 L 239.6868896484375 81.41500091552734 Z" transform="matrix(1, 0, 0, 1, -106.3377914428711, -28.414146423339844)" style="fill: rgb(0, 0, 0); white-space: pre;"/>
  <path d="M 263.6026977539062 81.41500091552734 L 263.6026977539062 46.415000915527344 L 291.40269775390624 46.415000915527344 L 291.40269775390624 53.86500091552735 L 272.20269775390625 53.86500091552735 L 272.20269775390625 60.415000915527344 L 285.00269775390626 60.415000915527344 L 285.00269775390626 67.61500091552735 L 272.20269775390625 67.61500091552735 L 272.20269775390625 81.41500091552734 Z M 311.4017272949219 81.96500091552734 Q 307.45172729492185 81.96500091552734 304.0517272949219 80.59000091552734 Q 300.6517272949219 79.21500091552734 298.1017272949219 76.74000091552735 Q 295.5517272949219 74.26500091552734 294.12672729492186 70.99000091552735 Q 292.70172729492185 67.71500091552734 292.70172729492185 63.915000915527344 Q 292.70172729492185 60.11500091552735 294.12672729492186 56.84000091552734 Q 295.5517272949219 53.56500091552734 298.1017272949219 51.09000091552734 Q 300.6517272949219 48.61500091552734 304.0517272949219 47.24000091552734 Q 307.45172729492185 45.86500091552734 311.4017272949219 45.86500091552734 Q 315.3517272949219 45.86500091552734 318.75172729492186 47.24000091552734 Q 322.1517272949219 48.61500091552734 324.70172729492185 51.09000091552734 Q 327.25172729492186 53.56500091552734 328.6767272949219 56.84000091552734 Q 330.1017272949219 60.11500091552735 330.1017272949219 63.915000915527344 Q 330.1017272949219 67.71500091552734 328.6767272949219 70.99000091552735 Q 327.25172729492186 74.26500091552734 324.70172729492185 76.74000091552735 Q 322.1517272949219 79.21500091552734 318.75172729492186 80.59000091552734 Q 315.3517272949219 81.96500091552734 311.4017272949219 81.96500091552734 Z M 311.4017272949219 74.06500091552735 Q 313.50172729492186 74.06500091552735 315.3017272949219 73.29000091552734 Q 317.1017272949219 72.51500091552734 318.4267272949219 71.16500091552734 Q 319.75172729492186 69.81500091552735 320.50172729492186 67.94000091552735 Q 321.25172729492186 66.06500091552735 321.25172729492186 63.915000915527344 Q 321.25172729492186 61.71500091552734 320.50172729492186 59.86500091552735 Q 319.75172729492186 58.01500091552734 318.4267272949219 56.665000915527344 Q 317.1017272949219 55.31500091552734 315.3017272949219 54.540000915527344 Q 313.50172729492186 53.76500091552734 311.4017272949219 53.76500091552734 Q 309.3017272949219 53.76500091552734 307.50172729492186 54.540000915527344 Q 305.70172729492185 55.31500091552734 304.37672729492186 56.665000915527344 Q 303.0517272949219 58.01500091552734 302.3017272949219 59.86500091552735 Q 301.5517272949219 61.71500091552734 301.5517272949219 63.86500091552735 Q 301.5517272949219 66.06500091552735 302.3017272949219 67.94000091552735 Q 303.0517272949219 69.81500091552735 304.37672729492186 71.16500091552734 Q 305.70172729492185 72.51500091552734 307.50172729492186 73.29000091552734 Q 309.3017272949219 74.06500091552735 311.4017272949219 74.06500091552735 Z M 328.2456970214844 81.41500091552734 L 341.4956970214844 63.36500091552735 L 328.8456970214844 46.415000915527344 L 339.0956970214844 46.415000915527344 L 346.5956970214844 56.96500091552734 L 354.0956970214844 46.415000915527344 L 363.94569702148436 46.415000915527344 L 351.4956970214844 63.36500091552735 L 364.9956970214844 81.41500091552734 L 354.7456970214844 81.41500091552734 L 346.39569702148435 69.71500091552734 L 338.0956970214844 81.41500091552734 Z" transform="matrix(1, 0, 0, 1, -106.3377914428711, -28.414146423339844)" style="fill: rgb(0, 154, 99); white-space: pre; paint-order: fill;"/>
  <path transform="matrix(1, 0, 0, 1, -106.3377914428711, -28.414146423339844)" style="fill: rgb(0, 154, 99); white-space: pre;"/>
  <path transform="matrix(1, 0, 0, 1, -106.3377914428711, -28.414146423339844)" style="fill: rgb(0, 154, 99); white-space: pre;"/>
</svg>