<?xml version="1.0" encoding="utf-8"?>
<svg viewBox="0.146 0.13 250.006 89.705" width="250.006" height="89.705" xmlns="http://www.w3.org/2000/svg">
  <path d="M 0.6058997344970702 23.46690185546875 Q -1.7341002655029296 23.46690185546875 -3.7441002655029294 22.64190185546875 Q -5.75410026550293 21.81690185546875 -7.26910026550293 20.34690185546875 Q -8.78410026550293 18.876901855468752 -9.62410026550293 16.896901855468748 Q -10.46410026550293 14.916901855468751 -10.46410026550293 12.63690185546875 Q -10.46410026550293 10.326901855468751 -9.62410026550293 8.361901855468751 Q -8.78410026550293 6.396901855468752 -7.26910026550293 4.926901855468749 Q -5.75410026550293 3.4569018554687503 -3.7441002655029294 2.631901855468751 Q -1.7341002655029296 1.8069018554687517 0.6058997344970702 1.8069018554687517 Q 2.28589973449707 1.8069018554687517 3.8908997344970704 2.301901855468749 Q 5.495899734497069 2.79690185546875 6.860899734497071 3.7119018554687493 Q 8.22589973449707 4.626901855468752 9.125899734497068 5.88690185546875 L 5.645899734497071 9.18690185546875 Q 4.625899734497068 7.776901855468751 3.36589973449707 7.086901855468749 Q 2.1058997344970702 6.396901855468752 0.6058997344970702 6.396901855468752 Q -0.6241002655029302 6.396901855468752 -1.6591002655029303 6.861901855468751 Q -2.6941002655029305 7.326901855468751 -3.47410026550293 8.18190185546875 Q -4.25410026550293 9.03690185546875 -4.68910026550293 10.16190185546875 Q -5.12410026550293 11.28690185546875 -5.12410026550293 12.63690185546875 Q -5.12410026550293 13.98690185546875 -4.68910026550293 15.11190185546875 Q -4.25410026550293 16.23690185546875 -3.47410026550293 17.09190185546875 Q -2.6941002655029305 17.946901855468752 -1.6591002655029303 18.41190185546875 Q -0.6241002655029302 18.876901855468752 0.6058997344970702 18.876901855468752 Q 2.1058997344970702 18.876901855468752 3.36589973449707 18.17190185546875 Q 4.625899734497068 17.46690185546875 5.645899734497071 16.08690185546875 L 9.125899734497068 19.38690185546875 Q 8.22589973449707 20.61690185546875 6.860899734497071 21.54690185546875 Q 5.495899734497069 22.47690185546875 3.8908997344970704 22.97190185546875 Q 2.28589973449707 23.46690185546875 0.6058997344970702 23.46690185546875 Z M 39.8314958190918 23.13690185546875 L 48.0214958190918 2.13690185546875 L 53.90149581909179 2.13690185546875 L 61.9714958190918 23.13690185546875 L 56.3914958190918 23.13690185546875 L 54.65149581909179 18.126901855468752 L 46.9714958190918 18.126901855468752 L 45.2014958190918 23.13690185546875 Z M 48.381495819091796 14.13690185546875 L 53.2714958190918 14.13690185546875 L 50.8414958190918 7.176901855468751 Z M 94.35660919189453 23.13690185546875 L 94.35660919189453 2.13690185546875 L 99.51660919189453 2.13690185546875 L 99.51660919189453 18.72690185546875 L 109.92660919189453 18.72690185546875 L 109.92660919189453 23.13690185546875 Z M 143.79161437988282 23.13690185546875 L 143.79161437988282 2.13690185546875 L 148.9516143798828 2.13690185546875 L 148.9516143798828 18.72690185546875 L 159.3616143798828 18.72690185546875 L 159.3616143798828 23.13690185546875 Z M 191.49902465820313 16.56690185546875 L 191.49902465820313 12.51690185546875 L 202.53902465820312 12.51690185546875 L 202.53902465820312 16.56690185546875 Z M 246.7772998046875 23.46690185546875 Q 244.4372998046875 23.46690185546875 242.4272998046875 22.64190185546875 Q 240.4172998046875 21.81690185546875 238.9022998046875 20.34690185546875 Q 237.3872998046875 18.876901855468752 236.5472998046875 16.896901855468748 Q 235.7072998046875 14.916901855468751 235.7072998046875 12.63690185546875 Q 235.7072998046875 10.326901855468751 236.5472998046875 8.361901855468751 Q 237.3872998046875 6.396901855468752 238.9022998046875 4.926901855468749 Q 240.4172998046875 3.4569018554687503 242.4272998046875 2.631901855468751 Q 244.4372998046875 1.8069018554687517 246.7772998046875 1.8069018554687517 Q 248.4572998046875 1.8069018554687517 250.0622998046875 2.301901855468749 Q 251.6672998046875 2.79690185546875 253.0322998046875 3.7119018554687493 Q 254.3972998046875 4.626901855468752 255.2972998046875 5.88690185546875 L 251.8172998046875 9.18690185546875 Q 250.7972998046875 7.776901855468751 249.5372998046875 7.086901855468749 Q 248.2772998046875 6.396901855468752 246.7772998046875 6.396901855468752 Q 245.5472998046875 6.396901855468752 244.5122998046875 6.861901855468751 Q 243.4772998046875 7.326901855468751 242.6972998046875 8.18190185546875 Q 241.9172998046875 9.03690185546875 241.4822998046875 10.16190185546875 Q 241.0472998046875 11.28690185546875 241.0472998046875 12.63690185546875 Q 241.0472998046875 13.98690185546875 241.4822998046875 15.11190185546875 Q 241.9172998046875 16.23690185546875 242.6972998046875 17.09190185546875 Q 243.4772998046875 17.946901855468752 244.5122998046875 18.41190185546875 Q 245.5472998046875 18.876901855468752 246.7772998046875 18.876901855468752 Q 248.2772998046875 18.876901855468752 249.5372998046875 18.17190185546875 Q 250.7972998046875 17.46690185546875 251.8172998046875 16.08690185546875 L 255.2972998046875 19.38690185546875 Q 254.3972998046875 20.61690185546875 253.0322998046875 21.54690185546875 Q 251.6672998046875 22.47690185546875 250.0622998046875 22.97190185546875 Q 248.4572998046875 23.46690185546875 246.7772998046875 23.46690185546875 Z M 288.3115576171875 23.13690185546875 L 288.3115576171875 2.13690185546875 L 304.1815576171875 2.13690185546875 L 304.1815576171875 6.45690185546875 L 293.4715576171875 6.45690185546875 L 293.4715576171875 10.44690185546875 L 301.0315576171875 10.44690185546875 L 301.0315576171875 14.64690185546875 L 293.4715576171875 14.64690185546875 L 293.4715576171875 18.81690185546875 L 304.3015576171875 18.81690185546875 L 304.3015576171875 23.13690185546875 Z M 338.32007202148435 23.13690185546875 L 338.32007202148435 2.13690185546875 L 343.18007202148436 2.13690185546875 L 352.51007202148435 14.85690185546875 L 352.4200720214844 2.13690185546875 L 357.2800720214844 2.13690185546875 L 357.2800720214844 23.13690185546875 L 352.7200720214844 23.13690185546875 L 343.0900720214844 9.996901855468751 L 343.18007202148436 23.13690185546875 Z M 397.01021850585937 23.13690185546875 L 397.01021850585937 6.54690185546875 L 390.26021850585937 6.54690185546875 L 390.26021850585937 2.13690185546875 L 408.9202185058594 2.13690185546875 L 408.9202185058594 6.54690185546875 L 402.1702185058594 6.54690185546875 L 402.1702185058594 23.13690185546875 Z M 441.86401733398435 23.13690185546875 L 441.86401733398435 2.13690185546875 L 457.73401733398435 2.13690185546875 L 457.73401733398435 6.45690185546875 L 447.0240173339844 6.45690185546875 L 447.0240173339844 10.44690185546875 L 454.5840173339844 10.44690185546875 L 454.5840173339844 14.64690185546875 L 447.0240173339844 14.64690185546875 L 447.0240173339844 18.81690185546875 L 457.85401733398436 18.81690185546875 L 457.85401733398436 23.13690185546875 Z M 491.9011877441406 23.13690185546875 L 491.9011877441406 2.13690185546875 L 502.10118774414065 2.13690185546875 Q 504.2611877441406 2.13690185546875 505.9411877441406 2.9919018554687504 Q 507.6211877441406 3.846901855468751 508.5661877441406 5.361901855468751 Q 509.5111877441406 6.876901855468752 509.5111877441406 8.826901855468751 Q 509.5111877441406 10.836901855468751 508.4461877441406 12.381901855468751 Q 507.3811877441406 13.926901855468751 505.61118774414064 14.70690185546875 L 510.0211877441406 23.13690185546875 L 504.2611877441406 23.13690185546875 L 500.4511877441406 15.42690185546875 L 497.0611877441406 15.42690185546875 L 497.0611877441406 23.13690185546875 Z M 497.0611877441406 11.37690185546875 L 501.6211877441406 11.37690185546875 Q 502.8211877441406 11.37690185546875 503.55618774414063 10.68690185546875 Q 504.29118774414064 9.996901855468751 504.29118774414064 8.88690185546875 Q 504.29118774414064 7.746901855468751 503.55618774414063 7.071901855468752 Q 502.8211877441406 6.396901855468752 501.6211877441406 6.396901855468752 L 497.0611877441406 6.396901855468752 Z" transform="matrix(0.4524630308151245, 0, 0, 0.6238220930099487, 5.49094820022583, 69.81324005126953)" style="text-transform: uppercase; white-space: pre;"/>
  <path d="M 67.094 67.785 C 65.208 67.785 63.452 67.44 61.828 66.753 C 60.205 66.064 58.778 65.101 57.547 63.862 C 56.318 62.624 55.362 61.185 54.682 59.547 C 54.002 57.907 53.662 56.137 53.662 54.234 C 53.662 52.333 54.002 50.562 54.682 48.923 C 55.362 47.285 56.307 45.845 57.512 44.607 C 58.718 43.368 60.132 42.406 61.758 41.717 C 63.382 41.028 65.124 40.685 66.987 40.685 C 69.113 40.685 71.119 41.141 73.005 42.054 C 74.892 42.968 76.431 44.226 77.627 45.827 L 73.291 49.918 C 72.479 48.817 71.541 47.991 70.48 47.441 C 69.417 46.89 68.253 46.615 66.987 46.615 C 65.984 46.615 65.058 46.808 64.21 47.197 C 63.362 47.585 62.623 48.116 61.989 48.792 C 61.358 49.468 60.867 50.269 60.521 51.194 C 60.175 52.12 60.002 53.134 60.002 54.234 C 60.002 55.336 60.181 56.355 60.539 57.294 C 60.897 58.233 61.405 59.045 62.061 59.734 C 62.718 60.422 63.481 60.96 64.354 61.348 C 65.226 61.736 66.175 61.93 67.203 61.93 C 68.181 61.93 69.07 61.755 69.871 61.404 C 70.671 61.053 71.358 60.565 71.93 59.94 C 72.504 59.315 72.91 58.602 73.148 57.801 L 66.378 57.801 L 66.378 52.207 L 79.811 52.207 L 79.811 54.085 C 79.811 56.061 79.494 57.882 78.861 59.547 C 78.229 61.21 77.346 62.661 76.211 63.9 C 75.077 65.14 73.733 66.096 72.182 66.771 C 70.629 67.447 68.934 67.785 67.094 67.785 Z M 79.611 66.937 L 79.611 40.662 L 92.436 40.662 C 94.154 40.662 95.683 41.018 97.02 41.732 C 98.359 42.445 99.402 43.433 100.155 44.697 C 100.908 45.96 101.283 47.406 101.283 49.032 C 101.283 50.684 100.853 52.161 99.993 53.462 C 99.134 54.763 98 55.751 96.591 56.427 L 102.072 66.937 L 95.193 66.937 L 90.465 57.365 L 85.773 57.365 L 85.773 66.937 L 79.611 66.937 Z M 85.773 52.11 L 91.862 52.11 C 92.818 52.11 93.587 51.834 94.174 51.284 C 94.758 50.734 95.05 50.021 95.05 49.145 C 95.05 48.27 94.758 47.556 94.174 47.006 C 93.587 46.456 92.818 46.18 91.862 46.18 L 85.773 46.18 L 85.773 52.11 Z M 101.813 66.937 L 101.813 40.662 L 121.587 40.662 L 121.587 46.254 L 107.974 46.254 L 107.974 50.984 L 116.965 50.984 L 116.965 56.389 L 107.974 56.389 L 107.974 61.344 L 121.73 61.344 L 121.73 66.937 L 101.813 66.937 Z M 121.288 66.937 L 121.288 40.662 L 141.061 40.662 L 141.061 46.254 L 127.447 46.254 L 127.447 50.984 L 136.439 50.984 L 136.439 56.389 L 127.447 56.389 L 127.447 61.344 L 141.203 61.344 L 141.203 66.937 L 121.288 66.937 Z M 140.755 66.937 L 140.755 40.662 L 146.558 40.662 L 157.949 55.901 L 157.949 40.662 L 163.753 40.662 L 163.753 66.937 L 158.308 66.937 L 146.558 51.097 L 146.558 66.937 L 140.755 66.937 Z" style="fill: rgb(0, 0, 0); white-space: pre;"/>
  <path d="M 163.495 66.878 L 163.495 40.596 L 183.513 40.596 L 183.513 46.191 L 169.688 46.191 L 169.688 51.11 L 178.905 51.11 L 178.905 56.516 L 169.688 56.516 L 169.688 66.878 L 163.495 66.878 Z M 197.916 67.292 C 196.019 67.292 194.255 66.947 192.622 66.26 C 190.989 65.57 189.562 64.607 188.338 63.367 C 187.113 62.129 186.159 60.69 185.475 59.05 C 184.791 57.411 184.449 55.64 184.449 53.738 C 184.449 51.835 184.791 50.064 185.475 48.424 C 186.159 46.785 187.113 45.345 188.338 44.106 C 189.562 42.868 190.989 41.903 192.622 41.215 C 194.255 40.527 196.019 40.183 197.916 40.183 C 199.81 40.183 201.576 40.527 203.206 41.215 C 204.84 41.903 206.267 42.868 207.492 44.106 C 208.715 45.345 209.67 46.785 210.355 48.424 C 211.039 50.064 211.38 51.835 211.38 53.738 C 211.38 55.64 211.039 57.411 210.355 59.05 C 209.67 60.69 208.715 62.129 207.492 63.367 C 206.267 64.607 204.84 65.57 203.206 66.26 C 201.576 66.947 199.81 67.292 197.916 67.292 Z M 197.916 61.36 C 198.923 61.36 199.859 61.164 200.724 60.778 C 201.587 60.389 202.337 59.857 202.974 59.182 C 203.609 58.505 204.107 57.699 204.468 56.76 C 204.828 55.821 205.008 54.813 205.008 53.738 C 205.008 52.636 204.828 51.623 204.468 50.696 C 204.107 49.769 203.609 48.969 202.974 48.293 C 202.337 47.618 201.587 47.084 200.724 46.698 C 199.859 46.309 198.923 46.116 197.916 46.116 C 196.907 46.116 195.97 46.309 195.106 46.698 C 194.242 47.084 193.492 47.618 192.856 48.293 C 192.22 48.969 191.721 49.769 191.362 50.696 C 191.001 51.623 190.821 52.623 190.821 53.7 C 190.821 54.801 191.001 55.821 191.362 56.76 C 191.721 57.699 192.22 58.505 192.856 59.182 C 193.492 59.857 194.242 60.389 195.106 60.778 C 195.97 61.164 196.907 61.36 197.916 61.36 Z M 210.044 66.878 L 219.585 53.325 L 210.476 40.596 L 217.857 40.596 L 223.258 48.518 L 228.658 40.596 L 235.752 40.596 L 226.785 53.325 L 236.508 66.878 L 229.127 66.878 L 223.114 58.093 L 217.137 66.878 L 210.044 66.878 Z" style="fill: rgb(0, 154, 99); white-space: pre; paint-order: fill;"/>
  <g transform="matrix(0.010241, 0, 0, -0.011617, -23.036192, 100.965988)" fill="#000000" stroke="none" style="">
    <path d="M6475 8644 c-42 -38 -705 -595 -803 -675 l-57 -47 -123 9 c-67 4 -173 4 -235 0 -79 -6 -116 -5 -127 3 -14 11 -416 347 -727 608 -84 70 -157 128 -162 128 -13 0 -57 -104 -85 -202 -59 -204 -85 -493 -66 -736 9 -125 44 -405 54 -437 1 -5 -23 -48 -54 -95 -89 -133 -225 -418 -208 -435 2 -2 24 21 48 53 73 93 168 189 201 202 44 19 287 7 417 -20 155 -31 296 -87 395 -154 21 -15 44 -23 50 -20 7 4 9 4 5 -1 -4 -4 25 -43 65 -85 104 -110 165 -237 197 -405 27 -142 49 -175 118 -175 70 0 95 33 116 150 44 244 82 327 211 456 79 80 103 98 195 143 172 84 358 121 603 121 l127 0 68 -67 c37 -38 92 -99 121 -136 29 -37 55 -66 58 -64 7 8 -59 173 -106 262 -26 50 -72 128 -103 175 -57 85 -57 85 -47 135 66 346 65 805 -2 1070 -29 113 -89 276 -101 275 -2 -1 -21 -17 -43 -36z m-2133 -301 c30 -41 143 -196 327 -450 24 -33 43 -65 43 -69 -3 -17 -67 -44 -104 -44 -40 0 -101 44 -113 81 -10 29 -25 23 -19 -8 9 -51 -23 -181 -65 -259 -45 -82 -90 -144 -107 -144 -12 0 -39 115 -54 230 -12 98 -12 332 0 445 13 112 41 265 50 265 3 0 22 -21 42 -47z m2142 -40 c49 -271 47 -593 -6 -803 -6 -25 -14 -49 -18 -53 -9 -10 -80 84 -115 154 -38 73 -55 141 -55 217 0 34 -3 62 -8 62 -4 0 -15 -15 -25 -33 -36 -66 -98 -82 -175 -47 -39 18 -42 21 -30 38 186 259 403 552 408 552 5 0 15 -39 24 -87z" style="fill: rgb(0, 154, 99);"/>
    <path d="M6466 6525 c-205 -129 -404 -302 -560 -488 -27 -32 -47 -59 -45 -61 2 -1 49 2 104 7 95 10 315 -2 359 -19 13 -5 16 0 16 27 0 36 43 235 61 284 51 139 101 237 142 283 11 12 18 22 16 22 -3 0 -45 -25 -93 -55z" style="fill: rgb(0, 154, 99);"/>
    <path d="M4180 6538 c-1 -93 -67 -265 -150 -389 -173 -258 -461 -538 -817 -795 -339 -244 -515 -435 -666 -721 -53 -101 -104 -242 -133 -368 -15 -64 -19 -119 -19 -270 1 -201 3 -219 62 -400 98 -303 325 -574 542 -647 65 -22 77 -23 606 -26 539 -4 1194 10 1440 29 790 61 1025 208 1317 819 82 171 141 295 168 355 61 135 152 310 195 376 61 92 231 263 307 308 32 18 97 47 145 64 81 29 99 31 218 32 84 0 143 -5 168 -13 21 -8 41 -11 44 -8 20 20 -74 231 -150 338 -61 85 -223 241 -313 300 -479 316 -1100 353 -1617 97 -264 -130 -483 -325 -669 -594 -77 -111 -127 -203 -219 -399 -234 -502 -484 -808 -832 -1018 -214 -129 -508 -209 -766 -208 -88 0 -93 16 -7 23 334 29 704 209 936 458 226 241 334 415 501 802 151 350 309 603 523 839 l106 117 -40 105 c-101 261 -261 439 -595 664 -94 63 -263 162 -277 162 -4 0 -8 -15 -8 -32z m2265 -933 c199 -28 384 -99 545 -210 47 -32 90 -58 97 -58 7 0 11 -3 10 -6 0 -3 49 -57 111 -119 62 -62 112 -118 112 -125 0 -7 -44 -23 -112 -39 -254 -61 -461 -203 -615 -422 -59 -83 -167 -287 -234 -439 -76 -176 -167 -337 -188 -337 -19 0 -34 198 -28 356 6 163 26 286 66 397 l19 57 -26 0 c-105 -2 -258 -68 -379 -165 -84 -68 -196 -183 -246 -255 l-17 -24 -1 49 c-3 211 14 335 69 500 46 139 124 306 183 391 16 23 29 46 29 50 0 9 -210 -5 -300 -21 -113 -21 -247 -52 -319 -74 -36 -11 -67 -18 -70 -15 -4 4 35 45 85 93 347 330 778 478 1209 416z" style="fill: rgb(0, 154, 99);"/>
  </g>
</svg>