<?xml version="1.0" encoding="utf-8"?>
<svg viewBox="0.146 40.183 250.006 49.652" width="250.006" height="49.652" xmlns="http://www.w3.org/2000/svg">
  <path d="M 0.6058997344970702 23.466899948120115 Q -1.7341002655029296 23.466899948120115 -3.7441002655029294 22.641899948120116 Q -5.75410026550293 21.816899948120117 -7.26910026550293 20.346899948120118 Q -8.78410026550293 18.87689994812012 -9.62410026550293 16.896899948120115 Q -10.46410026550293 14.916899948120118 -10.46410026550293 12.636899948120117 Q -10.46410026550293 10.326899948120118 -9.62410026550293 8.361899948120119 Q -8.78410026550293 6.396899948120119 -7.26910026550293 4.926899948120116 Q -5.75410026550293 3.4568999481201175 -3.7441002655029294 2.631899948120118 Q -1.7341002655029296 1.806899948120119 0.6058997344970702 1.806899948120119 Q 2.28589973449707 1.806899948120119 3.8908997344970704 2.3018999481201163 Q 5.495899734497069 2.7968999481201173 6.860899734497071 3.7118999481201165 Q 8.22589973449707 4.626899948120119 9.125899734497068 5.886899948120117 L 5.645899734497071 9.186899948120118 Q 4.625899734497068 7.776899948120118 3.36589973449707 7.0868999481201165 Q 2.1058997344970702 6.396899948120119 0.6058997344970702 6.396899948120119 Q -0.6241002655029302 6.396899948120119 -1.6591002655029303 6.861899948120119 Q -2.6941002655029305 7.3268999481201185 -3.47410026550293 8.181899948120117 Q -4.25410026550293 9.036899948120118 -4.68910026550293 10.161899948120118 Q -5.12410026550293 11.286899948120118 -5.12410026550293 12.636899948120117 Q -5.12410026550293 13.986899948120117 -4.68910026550293 15.111899948120117 Q -4.25410026550293 16.23689994812012 -3.47410026550293 17.091899948120115 Q -2.6941002655029305 17.94689994812012 -1.6591002655029303 18.411899948120116 Q -0.6241002655029302 18.87689994812012 0.6058997344970702 18.87689994812012 Q 2.1058997344970702 18.87689994812012 3.36589973449707 18.171899948120117 Q 4.625899734497068 17.466899948120115 5.645899734497071 16.086899948120116 L 9.125899734497068 19.386899948120117 Q 8.22589973449707 20.616899948120118 6.860899734497071 21.546899948120117 Q 5.495899734497069 22.476899948120117 3.8908997344970704 22.971899948120118 Q 2.28589973449707 23.466899948120115 0.6058997344970702 23.466899948120115 Z M 39.81339508056641 23.136899948120117 L 48.003395080566406 2.136899948120117 L 53.8833950805664 2.136899948120117 L 61.95339508056641 23.136899948120117 L 56.37339508056641 23.136899948120117 L 54.6333950805664 18.12689994812012 L 46.95339508056641 18.12689994812012 L 45.183395080566406 23.136899948120117 Z M 48.363395080566406 14.136899948120117 L 53.253395080566406 14.136899948120117 L 50.82339508056641 7.176899948120118 Z M 94.34922393798828 23.136899948120117 L 94.34922393798828 2.136899948120117 L 99.50922393798828 2.136899948120117 L 99.50922393798828 18.726899948120117 L 109.91922393798828 18.726899948120117 L 109.91922393798828 23.136899948120117 Z M 143.79437622070313 23.136899948120117 L 143.79437622070313 2.136899948120117 L 148.95437622070312 2.136899948120117 L 148.95437622070312 18.726899948120117 L 159.36437622070312 18.726899948120117 L 159.36437622070312 23.136899948120117 Z M 191.5117352294922 16.566899948120117 L 191.5117352294922 12.516899948120118 L 202.55173522949218 12.516899948120118 L 202.55173522949218 16.566899948120117 Z M 246.79911987304686 23.466899948120115 Q 244.4591198730469 23.466899948120115 242.44911987304687 22.641899948120116 Q 240.43911987304688 21.816899948120117 238.92411987304686 20.346899948120118 Q 237.40911987304688 18.87689994812012 236.56911987304687 16.896899948120115 Q 235.72911987304687 14.916899948120118 235.72911987304687 12.636899948120117 Q 235.72911987304687 10.326899948120118 236.56911987304687 8.361899948120119 Q 237.40911987304688 6.396899948120119 238.92411987304686 4.926899948120116 Q 240.43911987304688 3.4568999481201175 242.44911987304687 2.631899948120118 Q 244.4591198730469 1.806899948120119 246.79911987304686 1.806899948120119 Q 248.47911987304687 1.806899948120119 250.0841198730469 2.3018999481201163 Q 251.68911987304688 2.7968999481201173 253.0541198730469 3.7118999481201165 Q 254.41911987304687 4.626899948120119 255.31911987304687 5.886899948120117 L 251.83911987304688 9.186899948120118 Q 250.81911987304687 7.776899948120118 249.55911987304688 7.0868999481201165 Q 248.29911987304686 6.396899948120119 246.79911987304686 6.396899948120119 Q 245.56911987304687 6.396899948120119 244.53411987304688 6.861899948120119 Q 243.49911987304688 7.3268999481201185 242.71911987304688 8.181899948120117 Q 241.93911987304688 9.036899948120118 241.50411987304688 10.161899948120118 Q 241.06911987304687 11.286899948120118 241.06911987304687 12.636899948120117 Q 241.06911987304687 13.986899948120117 241.50411987304688 15.111899948120117 Q 241.93911987304688 16.23689994812012 242.71911987304688 17.091899948120115 Q 243.49911987304688 17.94689994812012 244.53411987304688 18.411899948120116 Q 245.56911987304687 18.87689994812012 246.79911987304686 18.87689994812012 Q 248.29911987304686 18.87689994812012 249.55911987304688 18.171899948120117 Q 250.81911987304687 17.466899948120115 251.83911987304688 16.086899948120116 L 255.31911987304687 19.386899948120117 Q 254.41911987304687 20.616899948120118 253.0541198730469 21.546899948120117 Q 251.68911987304688 22.476899948120117 250.0841198730469 22.971899948120118 Q 248.47911987304687 23.466899948120115 246.79911987304686 23.466899948120115 Z M 288.31531127929685 23.136899948120117 L 288.31531127929685 2.136899948120117 L 304.18531127929685 2.136899948120117 L 304.18531127929685 6.4568999481201175 L 293.4753112792969 6.4568999481201175 L 293.4753112792969 10.446899948120118 L 301.0353112792969 10.446899948120118 L 301.0353112792969 14.646899948120117 L 293.4753112792969 14.646899948120117 L 293.4753112792969 18.816899948120117 L 304.30531127929686 18.816899948120117 L 304.30531127929686 23.136899948120117 Z M 338.3627355957031 23.136899948120117 L 338.3627355957031 2.136899948120117 L 343.2227355957031 2.136899948120117 L 352.5527355957031 14.856899948120118 L 352.4627355957031 2.136899948120117 L 357.32273559570314 2.136899948120117 L 357.32273559570314 23.136899948120117 L 352.76273559570313 23.136899948120117 L 343.13273559570314 9.996899948120118 L 343.2227355957031 23.136899948120117 Z M 397.03524291992187 23.136899948120117 L 397.03524291992187 6.546899948120117 L 390.28524291992187 6.546899948120117 L 390.28524291992187 2.136899948120117 L 408.9452429199219 2.136899948120117 L 408.9452429199219 6.546899948120117 L 402.1952429199219 6.546899948120117 L 402.1952429199219 23.136899948120117 Z M 441.8992651367187 23.136899948120117 L 441.8992651367187 2.136899948120117 L 457.76926513671873 2.136899948120117 L 457.76926513671873 6.4568999481201175 L 447.05926513671875 6.4568999481201175 L 447.05926513671875 10.446899948120118 L 454.61926513671875 10.446899948120118 L 454.61926513671875 14.646899948120117 L 447.05926513671875 14.646899948120117 L 447.05926513671875 18.816899948120117 L 457.88926513671873 18.816899948120117 L 457.88926513671873 23.136899948120117 Z M 491.94665893554685 23.136899948120117 L 491.94665893554685 2.136899948120117 L 502.1466589355469 2.136899948120117 Q 504.30665893554686 2.136899948120117 505.98665893554687 2.9918999481201176 Q 507.6666589355469 3.846899948120118 508.61165893554687 5.361899948120119 Q 509.55665893554686 6.876899948120119 509.55665893554686 8.826899948120118 Q 509.55665893554686 10.836899948120118 508.49165893554687 12.381899948120118 Q 507.42665893554687 13.926899948120118 505.6566589355469 14.706899948120117 L 510.06665893554685 23.136899948120117 L 504.30665893554686 23.136899948120117 L 500.49665893554686 15.426899948120116 L 497.1066589355469 15.426899948120116 L 497.1066589355469 23.136899948120117 Z M 497.1066589355469 11.376899948120117 L 501.6666589355469 11.376899948120117 Q 502.86665893554687 11.376899948120117 503.6016589355469 10.686899948120118 Q 504.3366589355469 9.996899948120118 504.3366589355469 8.886899948120117 Q 504.3366589355469 7.746899948120118 503.6016589355469 7.0718999481201195 Q 502.86665893554687 6.396899948120119 501.6666589355469 6.396899948120119 L 497.1066589355469 6.396899948120119 Z" transform="matrix(0.4524630308151245, 0, 0, 0.6238220930099487, 5.49094820022583, 69.81324005126953)" style="text-transform: uppercase; white-space: pre;"/>
  <path d="M 67.094 67.785 C 65.208 67.785 63.452 67.44 61.828 66.753 C 60.205 66.064 58.778 65.101 57.547 63.862 C 56.318 62.624 55.362 61.185 54.682 59.547 C 54.002 57.907 53.662 56.137 53.662 54.234 C 53.662 52.333 54.002 50.562 54.682 48.923 C 55.362 47.285 56.307 45.845 57.512 44.607 C 58.718 43.368 60.132 42.406 61.758 41.717 C 63.382 41.028 65.124 40.685 66.987 40.685 C 69.113 40.685 71.119 41.141 73.005 42.054 C 74.892 42.968 76.431 44.226 77.627 45.827 L 73.291 49.918 C 72.479 48.817 71.541 47.991 70.48 47.441 C 69.417 46.89 68.253 46.615 66.987 46.615 C 65.984 46.615 65.058 46.808 64.21 47.197 C 63.362 47.585 62.623 48.116 61.989 48.792 C 61.358 49.468 60.867 50.269 60.521 51.194 C 60.175 52.12 60.002 53.134 60.002 54.234 C 60.002 55.336 60.181 56.355 60.539 57.294 C 60.897 58.233 61.405 59.045 62.061 59.734 C 62.718 60.422 63.481 60.96 64.354 61.348 C 65.226 61.736 66.175 61.93 67.203 61.93 C 68.181 61.93 69.07 61.755 69.871 61.404 C 70.671 61.053 71.358 60.565 71.93 59.94 C 72.504 59.315 72.91 58.602 73.148 57.801 L 66.378 57.801 L 66.378 52.207 L 79.811 52.207 L 79.811 54.085 C 79.811 56.061 79.494 57.882 78.861 59.547 C 78.229 61.21 77.346 62.661 76.211 63.9 C 75.077 65.14 73.733 66.096 72.182 66.771 C 70.629 67.447 68.934 67.785 67.094 67.785 Z M 79.611 66.937 L 79.611 40.662 L 92.436 40.662 C 94.154 40.662 95.683 41.018 97.02 41.732 C 98.359 42.445 99.402 43.433 100.155 44.697 C 100.908 45.96 101.283 47.406 101.283 49.032 C 101.283 50.684 100.853 52.161 99.993 53.462 C 99.134 54.763 98 55.751 96.591 56.427 L 102.072 66.937 L 95.193 66.937 L 90.465 57.365 L 85.773 57.365 L 85.773 66.937 L 79.611 66.937 Z M 85.773 52.11 L 91.862 52.11 C 92.818 52.11 93.587 51.834 94.174 51.284 C 94.758 50.734 95.05 50.021 95.05 49.145 C 95.05 48.27 94.758 47.556 94.174 47.006 C 93.587 46.456 92.818 46.18 91.862 46.18 L 85.773 46.18 L 85.773 52.11 Z M 101.813 66.937 L 101.813 40.662 L 121.587 40.662 L 121.587 46.254 L 107.974 46.254 L 107.974 50.984 L 116.965 50.984 L 116.965 56.389 L 107.974 56.389 L 107.974 61.344 L 121.73 61.344 L 121.73 66.937 L 101.813 66.937 Z M 121.288 66.937 L 121.288 40.662 L 141.061 40.662 L 141.061 46.254 L 127.447 46.254 L 127.447 50.984 L 136.439 50.984 L 136.439 56.389 L 127.447 56.389 L 127.447 61.344 L 141.203 61.344 L 141.203 66.937 L 121.288 66.937 Z M 140.755 66.937 L 140.755 40.662 L 146.558 40.662 L 157.949 55.901 L 157.949 40.662 L 163.753 40.662 L 163.753 66.937 L 158.308 66.937 L 146.558 51.097 L 146.558 66.937 L 140.755 66.937 Z" style="fill: rgb(0, 0, 0); white-space: pre;"/>
  <path d="M 163.495 66.878 L 163.495 40.596 L 183.513 40.596 L 183.513 46.191 L 169.688 46.191 L 169.688 51.11 L 178.905 51.11 L 178.905 56.516 L 169.688 56.516 L 169.688 66.878 L 163.495 66.878 Z M 197.916 67.292 C 196.019 67.292 194.255 66.947 192.622 66.26 C 190.989 65.57 189.562 64.607 188.338 63.367 C 187.113 62.129 186.159 60.69 185.475 59.05 C 184.791 57.411 184.449 55.64 184.449 53.738 C 184.449 51.835 184.791 50.064 185.475 48.424 C 186.159 46.785 187.113 45.345 188.338 44.106 C 189.562 42.868 190.989 41.903 192.622 41.215 C 194.255 40.527 196.019 40.183 197.916 40.183 C 199.81 40.183 201.576 40.527 203.206 41.215 C 204.84 41.903 206.267 42.868 207.492 44.106 C 208.715 45.345 209.67 46.785 210.355 48.424 C 211.039 50.064 211.38 51.835 211.38 53.738 C 211.38 55.64 211.039 57.411 210.355 59.05 C 209.67 60.69 208.715 62.129 207.492 63.367 C 206.267 64.607 204.84 65.57 203.206 66.26 C 201.576 66.947 199.81 67.292 197.916 67.292 Z M 197.916 61.36 C 198.923 61.36 199.859 61.164 200.724 60.778 C 201.587 60.389 202.337 59.857 202.974 59.182 C 203.609 58.505 204.107 57.699 204.468 56.76 C 204.828 55.821 205.008 54.813 205.008 53.738 C 205.008 52.636 204.828 51.623 204.468 50.696 C 204.107 49.769 203.609 48.969 202.974 48.293 C 202.337 47.618 201.587 47.084 200.724 46.698 C 199.859 46.309 198.923 46.116 197.916 46.116 C 196.907 46.116 195.97 46.309 195.106 46.698 C 194.242 47.084 193.492 47.618 192.856 48.293 C 192.22 48.969 191.721 49.769 191.362 50.696 C 191.001 51.623 190.821 52.623 190.821 53.7 C 190.821 54.801 191.001 55.821 191.362 56.76 C 191.721 57.699 192.22 58.505 192.856 59.182 C 193.492 59.857 194.242 60.389 195.106 60.778 C 195.97 61.164 196.907 61.36 197.916 61.36 Z M 210.044 66.878 L 219.585 53.325 L 210.476 40.596 L 217.857 40.596 L 223.258 48.518 L 228.658 40.596 L 235.752 40.596 L 226.785 53.325 L 236.508 66.878 L 229.127 66.878 L 223.114 58.093 L 217.137 66.878 L 210.044 66.878 Z" style="fill: rgb(0, 154, 99); white-space: pre; paint-order: fill;"/>
</svg>