<?xml version="1.0" encoding="utf-8"?>
<svg viewBox="1.491 0.13 53.404 66.899" width="53.404" height="66.899" xmlns="http://www.w3.org/2000/svg">
  <g transform="matrix(0.010241, 0, 0, -0.011617, -23.036192, 100.965988)" fill="#000000" stroke="none" style="">
    <path d="M6475 8644 c-42 -38 -705 -595 -803 -675 l-57 -47 -123 9 c-67 4 -173 4 -235 0 -79 -6 -116 -5 -127 3 -14 11 -416 347 -727 608 -84 70 -157 128 -162 128 -13 0 -57 -104 -85 -202 -59 -204 -85 -493 -66 -736 9 -125 44 -405 54 -437 1 -5 -23 -48 -54 -95 -89 -133 -225 -418 -208 -435 2 -2 24 21 48 53 73 93 168 189 201 202 44 19 287 7 417 -20 155 -31 296 -87 395 -154 21 -15 44 -23 50 -20 7 4 9 4 5 -1 -4 -4 25 -43 65 -85 104 -110 165 -237 197 -405 27 -142 49 -175 118 -175 70 0 95 33 116 150 44 244 82 327 211 456 79 80 103 98 195 143 172 84 358 121 603 121 l127 0 68 -67 c37 -38 92 -99 121 -136 29 -37 55 -66 58 -64 7 8 -59 173 -106 262 -26 50 -72 128 -103 175 -57 85 -57 85 -47 135 66 346 65 805 -2 1070 -29 113 -89 276 -101 275 -2 -1 -21 -17 -43 -36z m-2133 -301 c30 -41 143 -196 327 -450 24 -33 43 -65 43 -69 -3 -17 -67 -44 -104 -44 -40 0 -101 44 -113 81 -10 29 -25 23 -19 -8 9 -51 -23 -181 -65 -259 -45 -82 -90 -144 -107 -144 -12 0 -39 115 -54 230 -12 98 -12 332 0 445 13 112 41 265 50 265 3 0 22 -21 42 -47z m2142 -40 c49 -271 47 -593 -6 -803 -6 -25 -14 -49 -18 -53 -9 -10 -80 84 -115 154 -38 73 -55 141 -55 217 0 34 -3 62 -8 62 -4 0 -15 -15 -25 -33 -36 -66 -98 -82 -175 -47 -39 18 -42 21 -30 38 186 259 403 552 408 552 5 0 15 -39 24 -87z" style="fill: rgb(0, 154, 99);"/>
    <path d="M6466 6525 c-205 -129 -404 -302 -560 -488 -27 -32 -47 -59 -45 -61 2 -1 49 2 104 7 95 10 315 -2 359 -19 13 -5 16 0 16 27 0 36 43 235 61 284 51 139 101 237 142 283 11 12 18 22 16 22 -3 0 -45 -25 -93 -55z" style="fill: rgb(0, 154, 99);"/>
    <path d="M4180 6538 c-1 -93 -67 -265 -150 -389 -173 -258 -461 -538 -817 -795 -339 -244 -515 -435 -666 -721 -53 -101 -104 -242 -133 -368 -15 -64 -19 -119 -19 -270 1 -201 3 -219 62 -400 98 -303 325 -574 542 -647 65 -22 77 -23 606 -26 539 -4 1194 10 1440 29 790 61 1025 208 1317 819 82 171 141 295 168 355 61 135 152 310 195 376 61 92 231 263 307 308 32 18 97 47 145 64 81 29 99 31 218 32 84 0 143 -5 168 -13 21 -8 41 -11 44 -8 20 20 -74 231 -150 338 -61 85 -223 241 -313 300 -479 316 -1100 353 -1617 97 -264 -130 -483 -325 -669 -594 -77 -111 -127 -203 -219 -399 -234 -502 -484 -808 -832 -1018 -214 -129 -508 -209 -766 -208 -88 0 -93 16 -7 23 334 29 704 209 936 458 226 241 334 415 501 802 151 350 309 603 523 839 l106 117 -40 105 c-101 261 -261 439 -595 664 -94 63 -263 162 -277 162 -4 0 -8 -15 -8 -32z m2265 -933 c199 -28 384 -99 545 -210 47 -32 90 -58 97 -58 7 0 11 -3 10 -6 0 -3 49 -57 111 -119 62 -62 112 -118 112 -125 0 -7 -44 -23 -112 -39 -254 -61 -461 -203 -615 -422 -59 -83 -167 -287 -234 -439 -76 -176 -167 -337 -188 -337 -19 0 -34 198 -28 356 6 163 26 286 66 397 l19 57 -26 0 c-105 -2 -258 -68 -379 -165 -84 -68 -196 -183 -246 -255 l-17 -24 -1 49 c-3 211 14 335 69 500 46 139 124 306 183 391 16 23 29 46 29 50 0 9 -210 -5 -300 -21 -113 -21 -247 -52 -319 -74 -36 -11 -67 -18 -70 -15 -4 4 35 45 85 93 347 330 778 478 1209 416z" style="fill: rgb(0, 154, 99);"/>
  </g>
</svg>